<svg xmlns="http://www.w3.org/2000/svg" xmlns:xlink="http://www.w3.org/1999/xlink" width="35.662" height="35.662" viewBox="0 0 35.662 35.662">
  <defs>
    <style>
      .cls-1 {
        fill: none;
      }

      .cls-2, .cls-3 {
        stroke: none;
      }

      .cls-3 {
        fill: #fff;
      }

      .cls-4 {
        filter: url(#active);
      }
    </style>
    <filter id="active" x="0" y="0" width="35.662" height="35.662" filterUnits="userSpaceOnUse">
      <feOffset dy="3" input="SourceAlpha"/>
      <feGaussianBlur stdDeviation="3" result="blur"/>
      <feFlood flood-opacity="0.161"/>
      <feComposite operator="in" in2="blur"/>
      <feComposite in="SourceGraphic"/>
    </filter>
  </defs>
  <g class="cls-4" transform="matrix(1, 0, 0, 1, 0, 0)">
    <g id="active-2" data-name="active" class="cls-1" transform="translate(9 6)">
      <path class="cls-2" d="M8.831,0A8.831,8.831,0,1,1,0,8.831,8.831,8.831,0,0,1,8.831,0Z"/>
      <path class="cls-3" d="M 8.831048965454102 1.999999046325684 C 5.064398765563965 1.999999046325684 1.999999046325684 5.064398765563965 1.999999046325684 8.831048965454102 C 1.999999046325684 12.59769916534424 5.064398765563965 15.66209888458252 8.831048965454102 15.66209888458252 C 12.59769916534424 15.66209888458252 15.66209888458252 12.59769916534424 15.66209888458252 8.831048965454102 C 15.66209888458252 5.064398765563965 12.59769916534424 1.999999046325684 8.831048965454102 1.999999046325684 M 8.831048965454102 -1.9073486328125e-06 C 13.7082986831665 -1.9073486328125e-06 17.66209983825684 3.953799247741699 17.66209983825684 8.831048965454102 C 17.66209983825684 13.7082986831665 13.7082986831665 17.66209983825684 8.831048965454102 17.66209983825684 C 3.953799247741699 17.66209983825684 -1.9073486328125e-06 13.7082986831665 -1.9073486328125e-06 8.831048965454102 C -1.9073486328125e-06 3.953799247741699 3.953799247741699 -1.9073486328125e-06 8.831048965454102 -1.9073486328125e-06 Z"/>
    </g>
  </g>
</svg>
