<svg xmlns="http://www.w3.org/2000/svg" width="627.511" height="768" viewBox="0 0 627.511 768">
  <g id="ipad" transform="translate(0 -72)">
    <g id="Group_122" data-name="Group 122" transform="translate(11.897 72)">
      <path id="Path_104" data-name="Path 104" d="M32.327,0h76.931a32.327,32.327,0,0,1,32.327,32.327v76.931a32.327,32.327,0,0,1-32.327,32.327H32.327A32.327,32.327,0,0,1,0,109.258V32.327A32.327,32.327,0,0,1,32.327,0Z" transform="translate(100.115 0) rotate(45)" fill="#1db4d4"/>
      <path id="Path_132" data-name="Path 132" d="M-8.925,5.664h1.962v-9.4h5.185v9.4H.185V-5.5h-9.11Zm17.311.191A5.722,5.722,0,0,0,14.241.08,5.676,5.676,0,0,0,8.418-5.7,5.722,5.722,0,0,0,2.563.08,5.676,5.676,0,0,0,8.386,5.855Zm.032-1.8A3.827,3.827,0,0,1,4.621.08,3.782,3.782,0,0,1,8.386-3.893,3.827,3.827,0,0,1,12.183.08,3.782,3.782,0,0,1,8.418,4.052Zm8.2,1.611h1.851L24.1-2.473V5.664h1.931V-5.5H24.2L18.549,2.648V-5.5h-1.93ZM34.1,5.855a5.763,5.763,0,0,0,4.531-1.978L37.376,2.6a4.378,4.378,0,0,1-3.207,1.452A3.777,3.777,0,0,1,30.483.08a3.758,3.758,0,0,1,3.685-3.973A4.442,4.442,0,0,1,37.3-2.505l1.26-1.452A5.821,5.821,0,0,0,34.185-5.7,5.651,5.651,0,0,0,28.425.08,5.625,5.625,0,0,0,34.1,5.855Zm6.589-.191h1.962V2.425L44.4.638l3.813,5.026h2.377L45.736-.7l4.643-4.8H47.969L42.656.111V-5.5H40.694ZM-17.38,23.788c1.452,0,2.6-.718,3.542-2.617l4.356-8.727H-11.6l-3.063,6.493-3.478-6.493h-2.2l4.659,8.456a2.189,2.189,0,0,1-1.755,1.213,2.628,2.628,0,0,1-1.372-.351l-.75,1.468A4.4,4.4,0,0,0-17.38,23.788Zm16.306-.175H.887V12.444H-1.075v4.994a5.428,5.428,0,0,1-2.824.877c-1.388,0-2.074-.83-2.074-2.234V12.444H-7.935v4.132c0,2.409,1.5,3.558,3.685,3.558a7.563,7.563,0,0,0,3.175-.941Zm3.877,0h2.01l1.149-2.7h5.281l1.133,2.7h2.074L9.535,12.365H7.716Zm3.877-4.435L8.594,14.71l1.93,4.467ZM21.549,23.8a5.763,5.763,0,0,0,4.531-1.978l-1.26-1.276A4.378,4.378,0,0,1,21.612,22a3.777,3.777,0,0,1-3.685-3.973,3.758,3.758,0,0,1,3.685-3.973,4.442,4.442,0,0,1,3.127,1.388L26,13.992a5.821,5.821,0,0,0-4.372-1.739,5.651,5.651,0,0,0-5.76,5.776A5.625,5.625,0,0,0,21.549,23.8Zm9.333-.191H32.86V14.263H36.4V12.444H27.34v1.819h3.542Zm7.594,0h1.962V20.374l1.739-1.787,3.813,5.026h2.377l-4.85-6.366,4.643-4.8H45.752L40.439,18.06V12.444H38.476Zm10.61,0H51.1l1.149-2.7h5.281l1.133,2.7h2.074L55.819,12.365H54Zm3.877-4.435,1.915-4.467,1.93,4.467Z" transform="translate(80.048 90.107)" fill="#fff"/>
    </g>
    <g id="Group_122-2" data-name="Group 122" transform="translate(413.95 72)">
      <path id="Path_104-2" data-name="Path 104" d="M32.327,0h76.931a32.327,32.327,0,0,1,32.327,32.327v76.931a32.327,32.327,0,0,1-32.327,32.327H32.327A32.327,32.327,0,0,1,0,109.258V32.327A32.327,32.327,0,0,1,32.327,0Z" transform="translate(100.115 0) rotate(45)" fill="#1db4d4"/>
      <path id="Path_131" data-name="Path 131" d="M-14.995,5.664h1.962v-9.4h5.185v9.4h1.962V-5.5h-9.11Zm17.311.191A5.722,5.722,0,0,0,8.171.08,5.676,5.676,0,0,0,2.348-5.7,5.722,5.722,0,0,0-3.508.08,5.676,5.676,0,0,0,2.316,5.855Zm.032-1.8A3.827,3.827,0,0,1-1.45.08,3.782,3.782,0,0,1,2.316-3.893,3.827,3.827,0,0,1,6.113.08,3.782,3.782,0,0,1,2.348,4.052Zm8.2,1.739c2.2,0,3.494-1.42,3.494-8.52V-3.734H17.9v9.4h1.962V-5.5H12.208v2.2c0,6.685-1.053,7.4-2.186,7.4A2.244,2.244,0,0,1,9.384,4L9.192,5.616A6.519,6.519,0,0,0,10.548,5.791Zm14.136.048c1.452,0,2.6-.718,3.542-2.617L32.581-5.5H30.46L27.4.989,23.918-5.5h-2.2l4.659,8.456A2.189,2.189,0,0,1,24.62,4.164a2.628,2.628,0,0,1-1.372-.351L22.5,5.281A4.4,4.4,0,0,0,24.684,5.839ZM40.99,5.664h1.962V-5.5H40.99V-.511a5.428,5.428,0,0,1-2.824.878c-1.388,0-2.074-.83-2.074-2.234V-5.5H34.129v4.132c0,2.409,1.5,3.558,3.686,3.558a7.563,7.563,0,0,0,3.175-.941Zm4.834,0h8.36V3.909h-6.4v-3h5.6V-.846h-5.6v-2.9H54.1V-5.5h-8.28Zm10.69,0h1.962V.957H63.8V5.664h1.962V-5.5H63.8V-.862H58.476V-5.5H56.513Zm12.125,0h1.851l5.632-8.137V5.664h1.931V-5.5H76.217L70.569,2.648V-5.5h-1.93Zm12.3,0H89.3V3.909H82.9v-3h5.6V-.846H82.9v-2.9H89.22V-5.5H80.94ZM-35.967,23.612H-34v-3.59h2.218c2.457,0,4.467-1.308,4.467-3.813,0-2.281-1.643-3.765-4.244-3.765h-4.4ZM-34,18.252V14.231h2.281c1.468,0,2.409.686,2.409,1.994,0,1.2-.925,2.026-2.409,2.026Zm7.738,5.361h2.01l1.149-2.7h5.281l1.133,2.7h2.074l-4.914-11.248h-1.819Zm3.877-4.435,1.915-4.467,1.931,4.467Zm13.482-6.924a5.776,5.776,0,0,0-4.308,1.691l1.053,1.276a4.218,4.218,0,0,1,3.127-1.244c1.244,0,2.106.622,2.106,1.564,0,1.053-.878,1.627-2.3,1.627h-1.244v1.627h1.26c1.452,0,2.553.479,2.553,1.627,0,1.053-1.005,1.675-2.186,1.675a5.152,5.152,0,0,1-3.717-1.484l-1.069,1.356A6.407,6.407,0,0,0-8.8,23.8c2.489,0,4.1-1.42,4.1-3.271a2.739,2.739,0,0,0-2.186-2.68,2.723,2.723,0,0,0,1.9-2.6C-4.983,13.513-6.595,12.253-8.908,12.253ZM-2.4,23.612H-.436v-3.59H1.781c2.457,0,4.467-1.308,4.467-3.813,0-2.281-1.643-3.765-4.244-3.765H-2.4Zm1.962-5.361V14.231H1.845c1.468,0,2.409.686,2.409,1.994,0,1.2-.925,2.026-2.409,2.026Zm8.7,5.361h8.36V21.857h-6.4v-3h5.6V17.1h-5.6V14.2h6.318V12.444H8.259Zm10.69,0h14.63V12.444H31.632v9.413H27.245V12.444H25.282v9.413H20.895V12.444H18.948Zm17.5,0h8.36V21.857h-6.4v-3h5.6V17.1h-5.6V14.2h6.318V12.444H36.45Zm10.69,0H49.1V18.906h5.329v4.707h1.962V12.444H54.431v4.643H49.1V12.444H47.14Zm12.125,0h1.851l5.632-8.137v8.137h1.93V12.444H66.844L61.2,20.6V12.444H59.265Zm11.439,0h2.313l2.776-3.861h2.473v3.861h1.946V12.444H75.252c-2.585,0-4.164,1.388-4.164,3.558a3.362,3.362,0,0,0,2.664,3.414Zm4.675-5.568c-1.4,0-2.313-.75-2.313-1.915,0-1.213.878-1.915,2.345-1.915h2.856v3.829Zm12.492,5.568h1.962V18.906h5.329v4.707h1.962V12.444H95.163v4.643H89.834V12.444H87.872Zm11.168,0h2.01l1.149-2.7h5.281l1.133,2.7h2.074l-4.914-11.248h-1.819Zm3.877-4.435,1.915-4.467,1.93,4.467ZM-31.412,41.753a5.763,5.763,0,0,0,4.531-1.978l-1.26-1.276a4.378,4.378,0,0,1-3.207,1.452,3.777,3.777,0,0,1-3.685-3.973A3.758,3.758,0,0,1-31.348,32a4.442,4.442,0,0,1,3.127,1.388l1.26-1.452A5.821,5.821,0,0,0-31.332,30.2a5.651,5.651,0,0,0-5.76,5.776A5.625,5.625,0,0,0-31.412,41.753Zm9.333-.191H-20.1V32.212h3.542V30.393h-9.062v1.819h3.542Zm7.594,0h1.962v-3.59H-10.3c2.457,0,4.467-1.308,4.467-3.813,0-2.282-1.643-3.765-4.244-3.765h-4.4Zm1.962-5.361V32.18h2.281c1.468,0,2.409.686,2.409,1.994,0,1.2-.925,2.026-2.409,2.026ZM1.5,41.753a5.722,5.722,0,0,0,5.855-5.776A5.676,5.676,0,0,0,1.534,30.2a5.722,5.722,0,0,0-5.855,5.776A5.676,5.676,0,0,0,1.5,41.753Zm.032-1.8a3.827,3.827,0,0,1-3.8-3.973A3.782,3.782,0,0,1,1.5,32a3.827,3.827,0,0,1,3.8,3.973A3.782,3.782,0,0,1,1.534,39.95Zm8.2,1.611h1.851l5.632-8.137v8.137h1.931V30.393H17.313l-5.648,8.153V30.393H9.735Zm15.045,0h1.978V32.212H30.3V30.393H21.238v1.819H24.78Zm7.594,0h8.36V39.806h-6.4v-3h5.6V35.052h-5.6v-2.9h6.318V30.393h-8.28Zm10.69.128c2.2,0,3.494-1.42,3.494-8.52V32.164h3.861v9.4h1.962V30.393H44.723v2.2c0,6.685-1.053,7.4-2.186,7.4a2.244,2.244,0,0,1-.638-.1l-.191,1.611A6.519,6.519,0,0,0,43.064,41.689Zm12.205-.128h4.5c2.585,0,4.212-1.4,4.212-3.654s-1.691-3.494-4.2-3.494H57.215V30.393H55.269Zm1.946-1.755V36.121H59.7c1.484,0,2.329.622,2.329,1.771,0,1.26-.846,1.915-2.3,1.915Zm14.008,1.946a5.763,5.763,0,0,0,4.531-1.978L74.494,38.5a4.378,4.378,0,0,1-3.207,1.452A3.777,3.777,0,0,1,67.6,35.977,3.758,3.758,0,0,1,71.287,32a4.442,4.442,0,0,1,3.127,1.388l1.26-1.452A5.821,5.821,0,0,0,71.3,30.2a5.776,5.776,0,0,0-.08,11.551Zm9.333-.191h1.978V32.212h3.542V30.393H77.015v1.819h3.542Zm7.594,0H93.32c2.489,0,4.132-1.069,4.132-3.063a2.748,2.748,0,0,0-2.218-2.744,2.66,2.66,0,0,0,1.6-2.489,2.524,2.524,0,0,0-.75-1.883,4.032,4.032,0,0,0-2.92-.989h-5.01ZM90.082,35.1V32.132h2.824c1.26,0,1.962.542,1.962,1.42,0,1.053-.846,1.548-2.106,1.548Zm0,4.723V36.759h3.111c1.548,0,2.3.558,2.3,1.5,0,1.037-.814,1.564-2.154,1.564ZM105,41.753a5.776,5.776,0,1,0-5.823-5.776A5.722,5.722,0,0,0,105,41.753Zm.032-1.8a3.827,3.827,0,0,1-3.8-3.973A3.782,3.782,0,0,1,105,32a3.827,3.827,0,0,1,3.8,3.973A3.782,3.782,0,0,1,105.031,39.95Z" transform="translate(64.872 82.366)" fill="#fff"/>
    </g>
    <g id="Group_122-3" data-name="Group 122" transform="translate(107.333 217.907)">
      <path id="Path_104-3" data-name="Path 104" d="M32.327,0h76.931a32.327,32.327,0,0,1,32.327,32.327v76.931a32.327,32.327,0,0,1-32.327,32.327H32.327A32.327,32.327,0,0,1,0,109.258V32.327A32.327,32.327,0,0,1,32.327,0Z" transform="translate(100.115 0) rotate(45)" fill="#1db4d4"/>
      <path id="Path_129" data-name="Path 129" d="M-29.665,5.664H-27.7v-9.4h5.185v9.4h1.962V-5.5h-9.11Zm17.311.191A5.722,5.722,0,0,0-6.5.08,5.676,5.676,0,0,0-12.322-5.7,5.722,5.722,0,0,0-18.177.08,5.676,5.676,0,0,0-12.354,5.855Zm.032-1.8A3.827,3.827,0,0,1-16.119.08a3.782,3.782,0,0,1,3.765-3.973A3.827,3.827,0,0,1-8.557.08,3.782,3.782,0,0,1-12.322,4.052Zm6.924,4h1.723l.191-2.393H4.382V8.057H6.01l.271-4.148H4.893V-5.5H-2.893v1.579c0,3.733-.495,6-1.42,7.834H-5.4Zm3.175-4.148A14.821,14.821,0,0,0-1.01-2.457V-3.734H2.931V3.909ZM8.036,5.664H10V2.425L11.737.638l3.813,5.026h2.377L13.078-.7,17.72-5.5H15.311L10,.111V-5.5H8.036ZM19.6,5.791c2.2,0,3.494-1.42,3.494-8.52V-3.734h3.861v9.4h1.962V-5.5H21.262v2.2c0,6.685-1.053,7.4-2.186,7.4a2.244,2.244,0,0,1-.638-.1l-.191,1.611A6.519,6.519,0,0,0,19.6,5.791Zm21.315.064A5.451,5.451,0,0,0,46.311.08c0-3.239-2.186-5.776-5.361-5.776A5.356,5.356,0,0,0,35.621-.83H33.771V-5.5H31.808V5.664h1.962V.925h1.835A5.314,5.314,0,0,0,40.918,5.855Zm.032-1.771c-1.978,0-3.366-1.771-3.366-4,0-2.266,1.356-3.989,3.334-3.989S44.3-2.154,44.3.08C44.3,2.345,42.929,4.084,40.95,4.084Zm14.3,1.579h1.962V-5.5H55.245V-.511a5.428,5.428,0,0,1-2.824.878c-1.388,0-2.074-.83-2.074-2.234V-5.5H48.385v4.132c0,2.409,1.5,3.558,3.686,3.558a7.563,7.563,0,0,0,3.175-.941Zm4.834,0h8.36V3.909h-6.4v-3h5.6V-.846h-5.6v-2.9H68.36V-5.5H60.08Zm10.69,0h1.962V.957H78.06V5.664h1.962V-5.5H78.06V-.862H72.732V-5.5H70.769Zm12.125,0h1.851l5.632-8.137V5.664h1.93V-5.5H90.473L84.825,2.648V-5.5h-1.93Zm12.3,0h8.36V3.909h-6.4v-3h5.6V-.846h-5.6v-2.9h6.318V-5.5H95.2ZM-36.884,23.612h1.962V20.374l1.739-1.787,3.813,5.026h2.377l-4.85-6.366,4.643-4.8h-2.409l-5.313,5.616V12.444h-1.962Zm16.9.191a5.722,5.722,0,0,0,5.855-5.776,5.676,5.676,0,0,0-5.823-5.776,5.722,5.722,0,0,0-5.855,5.776A5.676,5.676,0,0,0-19.988,23.8Zm.032-1.8a3.827,3.827,0,0,1-3.8-3.973,3.782,3.782,0,0,1,3.765-3.973,3.827,3.827,0,0,1,3.8,3.973A3.782,3.782,0,0,1-19.956,22Zm8.2,1.611h1.93V15.635l3.494,5.233h.064L-2.741,15.6v8.009H-.779V12.444h-2.09l-3.4,5.281-3.4-5.281h-2.09Zm13.849,0H4.023V15.635l3.494,5.233h.064L11.107,15.6v8.009H13.07V12.444H10.98l-3.4,5.281-3.4-5.281H2.093Zm15.779.175c1.452,0,2.6-.718,3.542-2.617l4.356-8.727H23.648l-3.063,6.493-3.478-6.493H14.9L19.563,20.9a2.189,2.189,0,0,1-1.755,1.213,2.628,2.628,0,0,1-1.372-.351l-.75,1.468A4.4,4.4,0,0,0,17.872,23.788Zm9.748-.175h1.962V18.906h5.329v4.707h1.962V12.444H34.911v4.643H29.583V12.444H27.62Zm12.125,0H41.6l5.632-8.137v8.137h1.93V12.444H47.324L41.676,20.6V12.444H39.746Zm12.3,0h1.962V20.374l1.739-1.787,3.813,5.026h2.377l-4.85-6.366,4.643-4.8H59.322L54.009,18.06V12.444H52.047Zm10.61,0h2.01l1.149-2.7H71.1l1.133,2.7H74.3L69.389,12.365H67.57Zm3.877-4.435,1.915-4.467,1.93,4.467Zm18.316,6.829h1.627l.271-4.164H85.36v-9.4H83.413v9.4H78.18v-9.4H76.218V23.612h8.631ZM88.5,23.612h1.851l5.632-8.137v8.137h1.931V12.444H96.081L90.433,20.6V12.444H88.5Zm17.071-12.046a2.434,2.434,0,0,0,2.5-2.234L106.9,9.11a1.351,1.351,0,0,1-2.648,0l-1.2.223A2.46,2.46,0,0,0,105.574,11.567ZM100.8,23.612h1.851l5.632-8.137v8.137h1.93V12.444h-1.835L102.734,20.6V12.444H100.8Z" transform="translate(63.333 92.101)" fill="#fff"/>
    </g>
    <g id="Group_122-4" data-name="Group 122" transform="translate(320.973 217.907)">
      <path id="Path_104-4" data-name="Path 104" d="M32.327,0h76.931a32.327,32.327,0,0,1,32.327,32.327v76.931a32.327,32.327,0,0,1-32.327,32.327H32.327A32.327,32.327,0,0,1,0,109.258V32.327A32.327,32.327,0,0,1,32.327,0Z" transform="translate(100.115 0) rotate(45)" fill="#1db4d4"/>
      <path id="Path_128" data-name="Path 128" d="M-23.687,5.664h1.962V2.074h2.218c2.457,0,4.467-1.308,4.467-3.813,0-2.281-1.643-3.765-4.244-3.765h-4.4ZM-21.725.3V-3.718h2.282c1.468,0,2.409.686,2.409,1.994,0,1.2-.925,2.026-2.409,2.026Zm8.7,5.361h8.36V3.909h-6.4v-3h5.6V-.846h-5.6v-2.9h6.318V-5.5h-8.28Zm10.69,0H-.393v-9.4H5.175V-5.5H-2.34Zm9.477,0H8.988L14.62-2.473V5.664H16.55V-5.5H14.716L9.068,2.648V-5.5H7.137Zm17.486.191a5.763,5.763,0,0,0,4.531-1.978L27.894,2.6a4.378,4.378,0,0,1-3.207,1.452A3.777,3.777,0,0,1,21,.08a3.758,3.758,0,0,1,3.686-3.973,4.442,4.442,0,0,1,3.127,1.388l1.26-1.452A5.821,5.821,0,0,0,24.7-5.7,5.651,5.651,0,0,0,18.943.08,5.625,5.625,0,0,0,24.623,5.855Zm9.333-.191h1.978V-3.686h3.542V-5.5H30.415v1.819h3.542Zm7.594,0h1.962V2.074h2.218c2.457,0,4.467-1.308,4.467-3.813,0-2.281-1.643-3.765-4.244-3.765h-4.4ZM43.513.3V-3.718h2.282c1.468,0,2.409.686,2.409,1.994C48.2-.527,47.279.3,45.795.3Zm7.738,5.361h2.01l1.149-2.7h5.281l1.133,2.7H62.9L57.984-5.584H56.165Zm3.877-4.435,1.915-4.467,1.93,4.467ZM73.444,8.057h1.627l.271-4.164H73.955V-5.5H72.008v9.4H66.775V-5.5H64.813V5.664h8.631ZM77.1,5.664h1.851L84.58-2.473V5.664h1.93V-5.5H84.676L79.028,2.648V-5.5H77.1Zm11.439,0h2.313L93.627,1.8H96.1V5.664h1.946V-5.5H93.084C90.5-5.5,88.92-4.117,88.92-1.947a3.362,3.362,0,0,0,2.664,3.414ZM93.212.1c-1.4,0-2.313-.75-2.313-1.915,0-1.213.878-1.915,2.345-1.915H96.1V.1Zm-130.6,23.517h1.946v-9.4h5.568V12.444h-7.515Zm14.806.191a5.722,5.722,0,0,0,5.855-5.776,5.676,5.676,0,0,0-5.823-5.776,5.722,5.722,0,0,0-5.855,5.776A5.676,5.676,0,0,0-22.586,23.8Zm.032-1.8a3.827,3.827,0,0,1-3.8-3.973,3.782,3.782,0,0,1,3.765-3.973,3.827,3.827,0,0,1,3.8,3.973A3.782,3.782,0,0,1-22.554,22Zm10.945,1.611h1.978V14.263h3.542V12.444h-9.062v1.819h3.542ZM1.314,23.8a5.722,5.722,0,0,0,5.855-5.776,5.676,5.676,0,0,0-5.823-5.776A5.722,5.722,0,0,0-4.51,18.028,5.676,5.676,0,0,0,1.314,23.8ZM1.346,22a3.827,3.827,0,0,1-3.8-3.973,3.782,3.782,0,0,1,3.765-3.973,3.827,3.827,0,0,1,3.8,3.973A3.782,3.782,0,0,1,1.346,22Zm8.2,1.611h5.169c2.489,0,4.132-1.069,4.132-3.063a2.748,2.748,0,0,0-2.218-2.744,2.66,2.66,0,0,0,1.6-2.489,2.524,2.524,0,0,0-.75-1.883,4.032,4.032,0,0,0-2.92-.989H9.546Zm1.93-6.462V14.183H14.3c1.26,0,1.962.542,1.962,1.42,0,1.053-.846,1.548-2.106,1.548Zm0,4.723V18.81h3.111c1.548,0,2.3.558,2.3,1.5,0,1.037-.814,1.564-2.154,1.564ZM26.394,23.8a5.776,5.776,0,1,0-5.823-5.776A5.676,5.676,0,0,0,26.394,23.8Zm.032-1.8a3.827,3.827,0,0,1-3.8-3.973,3.782,3.782,0,0,1,3.765-3.973,3.827,3.827,0,0,1,3.8,3.973A3.782,3.782,0,0,1,26.426,22Zm8.2,1.611h1.946v-9.4h5.568V12.444H34.627Zm14.806.191a5.776,5.776,0,1,0-5.823-5.776A5.722,5.722,0,0,0,49.433,23.8Zm.032-1.8a3.827,3.827,0,0,1-3.8-3.973,3.782,3.782,0,0,1,3.765-3.973,3.827,3.827,0,0,1,3.8,3.973A3.782,3.782,0,0,1,49.465,22Zm11.711,4H62.9l.191-2.393h7.866v2.393h1.627l.271-4.148H71.466V12.444H63.68v1.58c0,3.733-.495,6-1.42,7.834H61.175Zm3.175-4.148a14.821,14.821,0,0,0,1.213-6.366V14.215H69.5v7.642ZM79.938,23.8a5.776,5.776,0,1,0-5.823-5.776A5.722,5.722,0,0,0,79.938,23.8ZM79.97,22a3.827,3.827,0,0,1-3.8-3.973,3.782,3.782,0,0,1,3.765-3.973,3.827,3.827,0,0,1,3.8,3.973A3.782,3.782,0,0,1,79.97,22Zm8.2,1.611H90.1V15.635l3.494,5.233h.064L97.185,15.6v8.009h1.962V12.444h-2.09l-3.4,5.281-3.4-5.281H88.17Zm12.891,0h2.01l1.149-2.7H109.5l1.133,2.7h2.074l-4.914-11.248h-1.819Zm3.877-4.435,1.915-4.467,1.93,4.467Z" transform="translate(62.054 92.101)" fill="#fff"/>
    </g>
    <g id="Group_122-5" data-name="Group 122" transform="translate(107.333 495.794)">
      <path id="Path_104-5" data-name="Path 104" d="M32.327,0h76.931a32.327,32.327,0,0,1,32.327,32.327v76.931a32.327,32.327,0,0,1-32.327,32.327H32.327A32.327,32.327,0,0,1,0,109.258V32.327A32.327,32.327,0,0,1,32.327,0Z" transform="translate(100.115 0) rotate(45)" fill="#1db4d4"/>
      <path id="Path_126" data-name="Path 126" d="M.091,5.664H2.053V2.074H4.271c2.457,0,4.467-1.308,4.467-3.813C8.738-4.021,7.095-5.5,4.494-5.5H.091ZM2.053.3V-3.718H4.334c1.468,0,2.409.686,2.409,1.994C6.744-.527,5.818.3,4.334.3ZM9.791,5.664H11.8l1.149-2.7h5.281l1.133,2.7h2.074L16.524-5.584H14.7Zm3.877-4.435,1.915-4.467,1.93,4.467Zm9.684,4.435h4.962c2.553,0,4.148-1.213,4.148-3.446,0-2.154-1.6-3.382-4.052-3.382H25.3V-3.734h6.382V-5.5H23.352ZM25.3,3.909V.494h2.936c1.452,0,2.266.558,2.266,1.643,0,1.372-.925,1.771-2.617,1.771Zm14.71,1.946A5.722,5.722,0,0,0,45.864.08,5.676,5.676,0,0,0,40.041-5.7,5.722,5.722,0,0,0,34.185.08,5.676,5.676,0,0,0,40.009,5.855Zm.032-1.8A3.827,3.827,0,0,1,36.244.08a3.782,3.782,0,0,1,3.765-3.973A3.827,3.827,0,0,1,43.806.08,3.782,3.782,0,0,1,40.041,4.052ZM50.986,5.664h1.978V-3.686h3.542V-5.5H47.444v1.819h3.542Zm7.594,0h4.5c2.585,0,4.212-1.4,4.212-3.654s-1.691-3.494-4.2-3.494H60.526V-5.5H58.58Zm1.946-1.755V.223h2.489c1.484,0,2.329.622,2.329,1.771,0,1.26-.846,1.915-2.3,1.915Zm8.089,1.755h1.946V-5.5H68.615ZM-35.528,23.612h1.962v-9.4h5.185v9.4h1.962V12.444h-9.11Zm17.311.191a5.722,5.722,0,0,0,5.855-5.776,5.676,5.676,0,0,0-5.823-5.776,5.722,5.722,0,0,0-5.855,5.776A5.676,5.676,0,0,0-18.217,23.8Zm.032-1.8a3.827,3.827,0,0,1-3.8-3.973,3.782,3.782,0,0,1,3.765-3.973,3.827,3.827,0,0,1,3.8,3.973A3.782,3.782,0,0,1-18.185,22ZM-5.2,23.612H-.029c2.489,0,4.132-1.069,4.132-3.063a2.748,2.748,0,0,0-2.218-2.744,2.66,2.66,0,0,0,1.6-2.489,2.524,2.524,0,0,0-.75-1.883,4.032,4.032,0,0,0-2.92-.989H-5.2Zm1.931-6.462V14.183H-.444c1.26,0,1.962.542,1.962,1.42,0,1.053-.846,1.548-2.106,1.548Zm0,4.723V18.81H-.157c1.548,0,2.3.558,2.3,1.5,0,1.037-.814,1.564-2.154,1.564Zm9.589,1.739H8.283V18.906h5.329v4.707h1.962V12.444H13.612v4.643H8.283V12.444H6.321Zm14.056.175c1.452,0,2.6-.718,3.542-2.617l4.356-8.727H26.152l-3.063,6.493-3.478-6.493h-2.2L22.068,20.9a2.189,2.189,0,0,1-1.755,1.213,2.628,2.628,0,0,1-1.372-.351l-.75,1.468A4.4,4.4,0,0,0,20.377,23.788Zm12.492-.175h1.978V14.263h3.542V12.444H29.327v1.819h3.542Zm7.594,0h1.962v-3.59h2.218c2.457,0,4.467-1.308,4.467-3.813,0-2.281-1.643-3.765-4.244-3.765h-4.4Zm1.962-5.361V14.231h2.282c1.468,0,2.409.686,2.409,1.994,0,1.2-.925,2.026-2.409,2.026Zm8.7,5.361h8.36V21.857h-6.4v-3h5.6V17.1h-5.6V14.2H59.4V12.444h-8.28Zm10.69,0h1.962V18.906H69.1v4.707h1.962V12.444H69.1v4.643H63.773V12.444H61.811Zm12.125,0H75.9V18.906h5.329v4.707H83.19V12.444H81.227v4.643H75.9V12.444H73.936Zm12.125,0h8.36V21.857h-6.4v-3h5.6V17.1h-5.6V14.2h6.318V12.444h-8.28Zm15.46-12.046a2.434,2.434,0,0,0,2.5-2.234l-1.181-.223a1.351,1.351,0,0,1-2.648,0L99,9.333A2.46,2.46,0,0,0,101.522,11.567Zm-4.77,12.046H98.6l5.632-8.137v8.137h1.93V12.444H104.33L98.682,20.6V12.444h-1.93ZM-16.063,41.561h1.851l5.632-8.137v8.137H-6.65V30.393H-8.485l-5.648,8.153V30.393h-1.931Zm17.087,0H6.193c2.489,0,4.132-1.069,4.132-3.063a2.748,2.748,0,0,0-2.218-2.744,2.66,2.66,0,0,0,1.6-2.489,2.524,2.524,0,0,0-.75-1.883,4.032,4.032,0,0,0-2.92-.989H1.024ZM2.954,35.1V32.132H5.778c1.26,0,1.962.542,1.962,1.42,0,1.053-.846,1.548-2.106,1.548Zm0,4.723V36.759H6.065c1.548,0,2.3.558,2.3,1.5,0,1.037-.814,1.564-2.154,1.564Zm9.589,1.739h1.962V36.855h5.329v4.707H21.8V30.393H19.834v4.643H14.505V30.393H12.543Zm12.125,0h8.36V39.806h-6.4v-3h5.6V35.052h-5.6v-2.9h6.318V30.393h-8.28Zm10.69,0h14.63V30.393H48.042v9.413H43.654V30.393H41.692v9.413H37.3V30.393H35.358Zm17.5,0h1.962V36.855h5.329v4.707h1.962V30.393H60.151v4.643H54.823V30.393H52.86Zm12.125,0h1.851l5.632-8.137v8.137H74.4V30.393H72.564l-5.648,8.153V30.393h-1.93ZM82.057,29.516a2.434,2.434,0,0,0,2.5-2.234l-1.181-.223a1.351,1.351,0,0,1-2.648,0l-1.2.223A2.46,2.46,0,0,0,82.057,29.516Zm-4.77,12.046h1.851l5.632-8.137v8.137H86.7V30.393H84.865l-5.648,8.153V30.393H77.287ZM-27.8,59.7a5.722,5.722,0,0,0,5.855-5.776,5.676,5.676,0,0,0-5.823-5.776,5.722,5.722,0,0,0-5.855,5.776A5.676,5.676,0,0,0-27.8,59.7Zm.032-1.8a3.827,3.827,0,0,1-3.8-3.973A3.782,3.782,0,0,1-27.8,49.953,3.827,3.827,0,0,1-24,53.926,3.782,3.782,0,0,1-27.766,57.9Zm10.945,1.611h1.978V50.161H-11.3V48.342h-9.062v1.819h3.542ZM-10.5,61.9H-8.78l.191-2.393H-.723V61.9H.9l.271-4.148H-.213V48.342H-8v1.579c0,3.733-.495,6-1.42,7.834H-10.5Zm3.175-4.148a14.821,14.821,0,0,0,1.213-6.366V50.113h3.941v7.642ZM2.93,59.51h8.36V57.755h-6.4v-3h5.6V53h-5.6V50.1h6.318V48.342H2.93Zm10.69.128c2.2,0,3.494-1.42,3.494-8.52V50.113h3.861v9.4h1.962V48.342H15.279v2.2c0,6.685-1.053,7.4-2.186,7.4a2.244,2.244,0,0,1-.638-.1l-.191,1.611A6.518,6.518,0,0,0,13.62,59.638Zm12.205-.128h1.962V56.271l1.739-1.787L33.34,59.51h2.377l-4.85-6.366,4.643-4.8H33.1l-5.313,5.616V48.342H25.825Zm11.567,0h1.851l5.632-8.137V59.51h1.931V48.342H44.971l-5.648,8.153V48.342H37.392ZM53.2,61.9h1.723l.191-2.393h7.866V61.9h1.627l.271-4.148H63.494V48.342H55.708v1.579c0,3.733-.495,6-1.42,7.834H53.2Zm3.175-4.148a14.821,14.821,0,0,0,1.213-6.366V50.113h3.941v7.642ZM71.966,59.7a5.776,5.776,0,1,0-5.823-5.776A5.722,5.722,0,0,0,71.966,59.7ZM72,57.9a3.827,3.827,0,0,1-3.8-3.973,3.782,3.782,0,0,1,3.765-3.973,3.827,3.827,0,0,1,3.8,3.973A3.782,3.782,0,0,1,72,57.9Zm8.2,1.611h1.93V51.533l3.494,5.233h.064L89.213,51.5V59.51h1.962V48.342h-2.09l-3.4,5.281-3.4-5.281H80.2Zm12.891,0H95.1l1.149-2.7h5.281l1.133,2.7h2.074L99.822,48.262H98Zm3.877-4.435,1.915-4.467,1.93,4.467Z" transform="translate(65.009 65.874)" fill="#fff"/>
    </g>
    <g id="Group_122-6" data-name="Group 122" transform="translate(320.973 495.794)">
      <path id="Path_104-6" data-name="Path 104" d="M32.327,0h76.931a32.327,32.327,0,0,1,32.327,32.327v76.931a32.327,32.327,0,0,1-32.327,32.327H32.327A32.327,32.327,0,0,1,0,109.258V32.327A32.327,32.327,0,0,1,32.327,0Z" transform="translate(100.115 0) rotate(45)" fill="#1db4d4"/>
      <path id="Path_125" data-name="Path 125" d="M-14.8,5.839c1.452,0,2.6-.718,3.542-2.617L-6.9-5.5H-9.025L-12.088.989-15.566-5.5h-2.2l4.659,8.456a2.189,2.189,0,0,1-1.755,1.213,2.628,2.628,0,0,1-1.372-.351l-.75,1.468A4.4,4.4,0,0,0-14.8,5.839ZM.133,5.855A5.763,5.763,0,0,0,4.664,3.877L3.4,2.6A4.378,4.378,0,0,1,.2,4.052,3.777,3.777,0,0,1-3.488.08,3.758,3.758,0,0,1,.2-3.893,4.442,4.442,0,0,1,3.324-2.505l1.26-1.452A5.821,5.821,0,0,0,.213-5.7,5.651,5.651,0,0,0-5.547.08,5.625,5.625,0,0,0,.133,5.855Zm9.333-.191h1.978V-3.686h3.542V-5.5H5.925v1.819H9.467Zm6.637,0h2.01l1.149-2.7h5.281l1.133,2.7h2.074L22.837-5.584H21.018Zm3.877-4.435L21.9-3.239l1.931,4.467Zm9.684,4.435h1.962V.957h5.329V5.664h1.962V-5.5H36.956V-.862H31.628V-5.5H29.665Zm17.454.191A5.722,5.722,0,0,0,52.975.08,5.676,5.676,0,0,0,47.151-5.7,5.722,5.722,0,0,0,41.3.08,5.676,5.676,0,0,0,47.119,5.855Zm.032-1.8A3.827,3.827,0,0,1,43.354.08a3.782,3.782,0,0,1,3.765-3.973A3.827,3.827,0,0,1,50.917.08,3.782,3.782,0,0,1,47.151,4.052Zm8.2,1.611h5.169c2.489,0,4.132-1.069,4.132-3.063A2.748,2.748,0,0,0,62.436-.144a2.66,2.66,0,0,0,1.6-2.489,2.524,2.524,0,0,0-.75-1.883,4.032,4.032,0,0,0-2.92-.989h-5.01ZM57.282-.8V-3.766h2.824c1.26,0,1.962.542,1.962,1.42,0,1.053-.846,1.548-2.106,1.548Zm0,4.723V.861h3.111c1.548,0,2.3.558,2.3,1.5,0,1.037-.814,1.564-2.154,1.564Zm9.589,1.739h1.962V2.425L70.573.638l3.813,5.026h2.377L71.913-.7l4.643-4.8H74.146L68.834.111V-5.5H66.871Zm10.61,0h2.01l1.149-2.7h5.281l1.133,2.7h2.074L84.214-5.584H82.395Zm3.877-4.435,1.915-4.467L85.2,1.228ZM-31.2,12.253a5.776,5.776,0,0,0-4.308,1.691l1.053,1.276a4.218,4.218,0,0,1,3.127-1.244c1.244,0,2.106.622,2.106,1.564,0,1.053-.878,1.627-2.3,1.627h-1.244v1.627h1.26c1.452,0,2.553.479,2.553,1.627,0,1.053-1.005,1.675-2.186,1.675a5.152,5.152,0,0,1-3.717-1.484l-1.069,1.356A6.407,6.407,0,0,0-31.09,23.8c2.489,0,4.1-1.42,4.1-3.271a2.739,2.739,0,0,0-2.186-2.68,2.723,2.723,0,0,0,1.9-2.6C-27.277,13.513-28.888,12.253-31.2,12.253Zm5.552,11.36h2.01l1.149-2.7h5.281l1.133,2.7H-14l-4.914-11.248h-1.819Zm3.877-4.435,1.915-4.467,1.93,4.467Zm9.684,4.435h4.962c2.553,0,4.148-1.213,4.148-3.446,0-2.154-1.6-3.382-4.052-3.382h-3.111V14.215H-3.76V12.444h-8.328Zm1.946-1.755V18.443h2.936c1.452,0,2.266.558,2.266,1.643,0,1.372-.925,1.771-2.617,1.771ZM4.569,23.8A5.776,5.776,0,1,0,4.6,12.253a5.722,5.722,0,0,0-5.855,5.776A5.676,5.676,0,0,0,4.569,23.8ZM4.6,22A3.827,3.827,0,0,1,.8,18.028a3.782,3.782,0,0,1,3.765-3.973,3.827,3.827,0,0,1,3.8,3.973A3.782,3.782,0,0,1,4.6,22Zm8.2,1.611h1.962v-3.59h2.218c2.457,0,4.467-1.308,4.467-3.813,0-2.281-1.643-3.765-4.244-3.765H12.8Zm1.962-5.361V14.231h2.281c1.468,0,2.409.686,2.409,1.994,0,1.2-.925,2.026-2.409,2.026ZM22.5,23.612h2.01l1.149-2.7h5.281l1.133,2.7h2.074L29.234,12.365H27.416Zm3.877-4.435,1.915-4.467,1.931,4.467Zm14.471,4.435h5.169c2.489,0,4.132-1.069,4.132-3.063a2.748,2.748,0,0,0-2.218-2.744,2.66,2.66,0,0,0,1.6-2.489,2.524,2.524,0,0,0-.75-1.883,4.032,4.032,0,0,0-2.92-.989h-5.01Zm1.931-6.462V14.183H45.6c1.26,0,1.962.542,1.962,1.42,0,1.053-.846,1.548-2.106,1.548Zm0,4.723V18.81h3.111c1.548,0,2.3.558,2.3,1.5,0,1.037-.814,1.564-2.154,1.564ZM57.7,23.8a5.776,5.776,0,1,0-5.823-5.776A5.722,5.722,0,0,0,57.7,23.8Zm.032-1.8a3.827,3.827,0,0,1-3.8-3.973A3.782,3.782,0,0,1,57.7,14.056a3.827,3.827,0,0,1,3.8,3.973A3.782,3.782,0,0,1,57.729,22Zm8.2,1.611h1.962V20.374l1.739-1.787,3.813,5.026h2.377l-4.85-6.366,4.643-4.8H73.205L67.892,18.06V12.444H65.93Zm11.567,0h1.962v-3.59h2.218c2.457,0,4.467-1.308,4.467-3.813,0-2.281-1.643-3.765-4.244-3.765H77.5Zm1.962-5.361V14.231h2.281c1.468,0,2.409.686,2.409,1.994,0,1.2-.925,2.026-2.409,2.026Zm10.626,5.536c1.452,0,2.6-.718,3.542-2.617l4.356-8.727H95.861L92.8,18.938l-3.478-6.493h-2.2L91.776,20.9a2.189,2.189,0,0,1-1.755,1.213,2.628,2.628,0,0,1-1.372-.351L87.9,23.23A4.4,4.4,0,0,0,90.085,23.788Zm9.748-.175h1.946v-9.4h5.568V12.444H99.833ZM-1.893,41.737c1.452,0,2.6-.718,3.542-2.617L6,30.393H3.883L.819,36.887l-3.478-6.493h-2.2L-.2,38.849a2.189,2.189,0,0,1-1.755,1.213,2.628,2.628,0,0,1-1.372-.351l-.75,1.468A4.4,4.4,0,0,0-1.893,41.737Zm16.306-.175h1.962V30.393H14.413v4.994a5.428,5.428,0,0,1-2.824.877c-1.388,0-2.074-.83-2.074-2.234V30.393H7.552v4.132c0,2.409,1.5,3.558,3.685,3.558a7.563,7.563,0,0,0,3.175-.941Zm3.877,0H20.3l1.149-2.7h5.281l1.133,2.7h2.074L25.022,30.313H23.2Zm3.877-4.435,1.915-4.467,1.93,4.467Zm14.87,4.627a5.763,5.763,0,0,0,4.531-1.978L40.307,38.5A4.378,4.378,0,0,1,37.1,39.95a3.777,3.777,0,0,1-3.685-3.973A3.758,3.758,0,0,1,37.1,32a4.442,4.442,0,0,1,3.127,1.388l1.26-1.452A5.821,5.821,0,0,0,37.116,30.2a5.776,5.776,0,0,0-.08,11.551Zm9.333-.191h1.978V32.212H51.89V30.393H42.828v1.819H46.37Zm7.594,0h1.962V38.323l1.739-1.787,3.813,5.026h2.377L59.006,35.2l4.643-4.8H61.239l-5.313,5.616V30.393H53.964Zm10.61,0h2.01l1.149-2.7h5.281l1.133,2.7H76.22L71.306,30.313H69.488Zm3.877-4.435,1.915-4.467L72.3,37.126Z" transform="translate(65.389 86.355)" fill="#fff"/>
    </g>
    <g id="Group_122-7" data-name="Group 122" transform="translate(213.64 72.384)">
      <path id="Path_104-7" data-name="Path 104" d="M32.327,0h76.931a32.327,32.327,0,0,1,32.327,32.327v76.931a32.327,32.327,0,0,1-32.327,32.327H32.327A32.327,32.327,0,0,1,0,109.258V32.327A32.327,32.327,0,0,1,32.327,0Z" transform="translate(100.115 0) rotate(45)" fill="#1db4d4"/>
      <path id="Path_130" data-name="Path 130" d="M-29.4,7.422a5.722,5.722,0,0,0,5.855-5.776,5.676,5.676,0,0,0-5.823-5.776,5.722,5.722,0,0,0-5.855,5.776A5.676,5.676,0,0,0-29.4,7.422Zm.032-1.8a3.827,3.827,0,0,1-3.8-3.973A3.782,3.782,0,0,1-29.4-2.326a3.827,3.827,0,0,1,3.8,3.973A3.782,3.782,0,0,1-29.373,5.619Zm8.2,1.611h4.962c2.553,0,4.148-1.213,4.148-3.446,0-2.154-1.6-3.382-4.052-3.382h-3.111V-2.167h6.382V-3.938h-8.328Zm1.946-1.755V2.061h2.936c1.452,0,2.266.558,2.266,1.643,0,1.372-.925,1.771-2.617,1.771ZM-7.914,7.406c1.452,0,2.6-.718,3.542-2.617L-.016-3.938H-2.138L-5.2,2.556-8.68-3.938h-2.2l4.659,8.456A2.189,2.189,0,0,1-7.978,5.731,2.628,2.628,0,0,1-9.35,5.38l-.75,1.468A4.4,4.4,0,0,0-7.914,7.406ZM7.02,7.422a5.763,5.763,0,0,0,4.531-1.978L10.29,4.167A4.378,4.378,0,0,1,7.083,5.619,3.777,3.777,0,0,1,3.4,1.647,3.758,3.758,0,0,1,7.083-2.326,4.442,4.442,0,0,1,10.211-.938l1.26-1.452A5.821,5.821,0,0,0,7.1-4.129,5.651,5.651,0,0,0,1.34,1.647,5.625,5.625,0,0,0,7.02,7.422Zm9.333-.191h1.978V-2.119h3.542V-3.938H12.811v1.819h3.542Zm7.594,0H25.91V3.641h2.218c2.457,0,4.467-1.308,4.467-3.813,0-2.281-1.643-3.765-4.244-3.765h-4.4ZM25.91,1.87V-2.151h2.281c1.468,0,2.409.686,2.409,1.994,0,1.2-.925,2.026-2.409,2.026ZM39.934,7.422a5.722,5.722,0,0,0,5.855-5.776,5.676,5.676,0,0,0-5.823-5.776A5.722,5.722,0,0,0,34.11,1.647,5.676,5.676,0,0,0,39.934,7.422Zm.032-1.8a3.827,3.827,0,0,1-3.8-3.973,3.782,3.782,0,0,1,3.765-3.973,3.827,3.827,0,0,1,3.8,3.973A3.782,3.782,0,0,1,39.966,5.619ZM52.937-4.815a2.434,2.434,0,0,0,2.5-2.234l-1.181-.223a1.318,1.318,0,0,1-1.324,1.085,1.306,1.306,0,0,1-1.324-1.085l-1.2.223A2.46,2.46,0,0,0,52.937-4.815ZM48.166,7.231h1.851L55.649-.906V7.231H57.58V-3.938H55.745L50.1,4.215V-3.938h-1.93Zm17.486.191a5.763,5.763,0,0,0,4.531-1.978l-1.26-1.276a4.378,4.378,0,0,1-3.207,1.452,3.777,3.777,0,0,1-3.686-3.973,3.758,3.758,0,0,1,3.686-3.973A4.442,4.442,0,0,1,68.843-.938L70.1-2.39a5.821,5.821,0,0,0-4.372-1.739,5.651,5.651,0,0,0-5.76,5.776A5.625,5.625,0,0,0,65.653,7.422Zm9.333-.191h1.978V-2.119h3.542V-3.938H71.444v1.819h3.542Zm7.594,0H87.75c2.489,0,4.132-1.069,4.132-3.063a2.748,2.748,0,0,0-2.218-2.744,2.66,2.66,0,0,0,1.6-2.489,2.524,2.524,0,0,0-.75-1.883,4.032,4.032,0,0,0-2.92-.989H82.58ZM84.511.769V-2.2h2.824c1.26,0,1.962.542,1.962,1.42C89.3.274,88.452.769,87.191.769Zm0,4.723V2.428h3.111c1.548,0,2.3.558,2.3,1.5,0,1.037-.814,1.564-2.154,1.564Zm14.918,1.93a5.722,5.722,0,0,0,5.855-5.776A5.676,5.676,0,0,0,99.46-4.129,5.722,5.722,0,0,0,93.6,1.647,5.676,5.676,0,0,0,99.428,7.422Zm.032-1.8a3.827,3.827,0,0,1-3.8-3.973,3.782,3.782,0,0,1,3.765-3.973,3.827,3.827,0,0,1,3.8,3.973A3.782,3.782,0,0,1,99.46,5.619ZM-16.114,25.18h1.962v-9.4h5.185v9.4H-7V14.011h-9.11Zm11.982,0H-2.17V21.59H.047c2.457,0,4.467-1.308,4.467-3.813,0-2.281-1.643-3.765-4.244-3.765h-4.4Zm1.962-5.361V15.8H.111c1.468,0,2.409.686,2.409,1.994,0,1.2-.925,2.026-2.409,2.026Zm8.7,5.361H8.376l5.632-8.137V25.18h1.931V14.011H14.1L8.456,22.164V14.011H6.525ZM17.55,27.573h1.723l.191-2.393H27.33v2.393h1.627l.271-4.148H27.84V14.011H20.054v1.58c0,3.733-.495,6-1.42,7.834H17.55Zm3.175-4.148a14.821,14.821,0,0,0,1.213-6.366V15.782h3.941v7.642Zm15.588,1.946A5.776,5.776,0,1,0,30.489,19.6,5.722,5.722,0,0,0,36.312,25.371Zm.032-1.8a3.827,3.827,0,0,1-3.8-3.973,3.782,3.782,0,0,1,3.765-3.973,3.827,3.827,0,0,1,3.8,3.973A3.782,3.782,0,0,1,36.344,23.568Zm8.2,1.611h1.931V17.2l3.494,5.233h.064l3.526-5.265V25.18h1.962V14.011h-2.09l-3.4,5.281-3.4-5.281h-2.09Zm19.177.191A5.776,5.776,0,1,0,57.9,19.6,5.722,5.722,0,0,0,63.722,25.371Zm.032-1.8a3.827,3.827,0,0,1-3.8-3.973,3.782,3.782,0,0,1,3.765-3.973,3.827,3.827,0,0,1,3.8,3.973A3.782,3.782,0,0,1,63.754,23.568ZM76.725,13.134a2.434,2.434,0,0,0,2.5-2.234l-1.181-.223a1.351,1.351,0,0,1-2.648,0l-1.2.223A2.46,2.46,0,0,0,76.725,13.134ZM71.955,25.18h1.851l5.632-8.137V25.18h1.93V14.011H79.533l-5.648,8.153V14.011h-1.93ZM-20.087,43.128h1.978V33.779h3.542V31.96h-9.062v1.819h3.542Zm7.594,0h8.36V41.373h-6.4v-3h5.6V36.619h-5.6v-2.9h6.318V31.96h-8.28Zm10.69,0H.159v-3.59H2.377c2.457,0,4.467-1.308,4.467-3.813,0-2.282-1.643-3.765-4.244-3.765H-1.8ZM.159,37.768V33.747H2.441c1.468,0,2.409.686,2.409,1.994,0,1.2-.925,2.026-2.409,2.026Zm8.7,5.361h1.962v-3.59h2.218c2.457,0,4.467-1.308,4.467-3.813,0-2.282-1.643-3.765-4.244-3.765h-4.4Zm1.962-5.361V33.747H13.1c1.468,0,2.409.686,2.409,1.994,0,1.2-.925,2.026-2.409,2.026Zm8.7,5.361h1.851l5.632-8.137v8.137h1.93V31.96H27.09l-5.648,8.153V31.96H19.512Zm15.045,0h1.978V33.779h3.542V31.96H31.015v1.819h3.542Zm12.923.191a5.776,5.776,0,1,0-5.823-5.776A5.722,5.722,0,0,0,47.48,43.32Zm.032-1.8a3.827,3.827,0,0,1-3.8-3.973,3.782,3.782,0,0,1,3.765-3.973,3.827,3.827,0,0,1,3.8,3.973A3.782,3.782,0,0,1,47.512,41.517Zm8.2,1.611h1.962v-3.59h2.218c2.457,0,4.467-1.308,4.467-3.813,0-2.282-1.643-3.765-4.244-3.765h-4.4Zm1.962-5.361V33.747h2.281c1.468,0,2.409.686,2.409,1.994,0,1.2-.925,2.026-2.409,2.026Zm8.7,5.361h1.851l5.632-8.137v8.137h1.931V31.96H73.949L68.3,40.113V31.96h-1.93Zm12.3,0h1.851l5.632-8.137v8.137h1.931V31.96H86.25L80.6,40.113V31.96H78.671ZM-2.585,61.253c1.452,0,2.6-.718,3.542-2.617l4.356-8.727H3.191L.127,56.4l-3.478-6.493h-2.2l4.659,8.456a2.189,2.189,0,0,1-1.755,1.213,2.628,2.628,0,0,1-1.372-.351l-.75,1.468A4.4,4.4,0,0,0-2.585,61.253Zm16.306-.175h1.962V49.909H13.721V54.9a5.428,5.428,0,0,1-2.824.878c-1.388,0-2.074-.83-2.074-2.234V49.909H6.86v4.132c0,2.409,1.5,3.558,3.685,3.558a7.563,7.563,0,0,0,3.175-.941Zm3.877,0h2.01l1.149-2.7h5.281l1.133,2.7h2.074L24.33,49.829H22.511Zm3.877-4.435,1.915-4.467,1.93,4.467Zm14.87,4.627a5.763,5.763,0,0,0,4.531-1.978l-1.26-1.276a4.378,4.378,0,0,1-3.207,1.452,3.984,3.984,0,0,1,0-7.945,4.442,4.442,0,0,1,3.127,1.388l1.26-1.452a5.821,5.821,0,0,0-4.372-1.739,5.776,5.776,0,0,0-.08,11.551Zm9.333-.191h1.978V51.728H51.2V49.909H42.136v1.819h3.542Zm7.594,0h1.962V57.838l1.739-1.787,3.813,5.026h2.377l-4.85-6.366,4.643-4.8H60.547l-5.313,5.616V49.909H53.272Zm10.61,0h2.01l1.149-2.7h5.281l1.133,2.7h2.074L70.614,49.829H68.8Zm3.877-4.435,1.915-4.467,1.93,4.467Z" transform="translate(65.368 80.353)" fill="#fff"/>
    </g>
    <g id="Group_122-8" data-name="Group 122" transform="translate(0 639.092)">
      <path id="Path_104-8" data-name="Path 104" d="M32.327,0h76.931a32.327,32.327,0,0,1,32.327,32.327v76.931a32.327,32.327,0,0,1-32.327,32.327H32.327A32.327,32.327,0,0,1,0,109.258V32.327A32.327,32.327,0,0,1,32.327,0Z" transform="translate(100.115 0) rotate(45)" fill="#1db4d4"/>
      <path id="Path_123" data-name="Path 123" d="M-11.646,5.664h1.962v-9.4H-4.5v9.4h1.962V-5.5h-9.11Zm17.311.191A5.722,5.722,0,0,0,11.52.08,5.676,5.676,0,0,0,5.7-5.7,5.722,5.722,0,0,0-.159.08,5.676,5.676,0,0,0,5.665,5.855Zm.032-1.8A3.827,3.827,0,0,1,1.9.08,3.782,3.782,0,0,1,5.665-3.893,3.827,3.827,0,0,1,9.462.08,3.782,3.782,0,0,1,5.7,4.052Zm8.2,1.611h1.931V-2.314l3.494,5.233h.064l3.526-5.265V5.664h1.962V-5.5h-2.09l-3.4,5.281L15.987-5.5H13.9Zm19.177.191A5.722,5.722,0,0,0,38.93.08,5.676,5.676,0,0,0,33.106-5.7,5.722,5.722,0,0,0,27.251.08,5.676,5.676,0,0,0,33.074,5.855Zm.032-1.8A3.827,3.827,0,0,1,29.309.08a3.782,3.782,0,0,1,3.765-3.973A3.827,3.827,0,0,1,36.872.08,3.782,3.782,0,0,1,33.106,4.052Zm22.336,4h1.611l.271-4.164H55.953V-5.5H53.991v9.4H49.6V-5.5H47.657v9.4H43.269V-5.5H41.307V5.664H55.443ZM59.08,5.664h4.5c2.585,0,4.212-1.4,4.212-3.654S66.1-1.484,63.6-1.484H61.027V-5.5H59.08Zm1.946-1.755V.223h2.489c1.484,0,2.329.622,2.329,1.771,0,1.26-.846,1.915-2.3,1.915ZM-22.144,23.8a5.763,5.763,0,0,0,4.531-1.978l-1.26-1.276A4.378,4.378,0,0,1-22.08,22a3.777,3.777,0,0,1-3.686-3.973,3.758,3.758,0,0,1,3.686-3.973,4.442,4.442,0,0,1,3.127,1.388l1.26-1.452a5.821,5.821,0,0,0-4.372-1.739,5.651,5.651,0,0,0-5.76,5.776A5.625,5.625,0,0,0-22.144,23.8Zm11.376-.191h1.851l5.632-8.137v8.137h1.93V12.444H-3.19L-8.838,20.6V12.444h-1.931Zm12.3,0H3.495v-9.4H8.68v9.4h1.962V12.444H1.532Zm17.311.191a5.776,5.776,0,1,0,.032-11.551A5.776,5.776,0,1,0,18.843,23.8Zm.032-1.8a3.827,3.827,0,0,1-3.8-3.973,3.782,3.782,0,0,1,3.765-3.973,3.827,3.827,0,0,1,3.8,3.973A3.782,3.782,0,0,1,18.875,22ZM29.82,23.612H31.8V14.263H35.34V12.444H26.278v1.819H29.82Zm7.594,0h8.36V21.857h-6.4v-3h5.6V17.1h-5.6V14.2h6.318V12.444h-8.28Zm10.69,0h1.962V20.374l1.739-1.787,3.813,5.026H58l-4.85-6.366,4.643-4.8H55.379L50.066,18.06V12.444H48.1ZM65,23.8a5.776,5.776,0,1,0-5.823-5.776A5.722,5.722,0,0,0,65,23.8Zm.032-1.8a3.827,3.827,0,0,1-3.8-3.973A3.782,3.782,0,0,1,65,14.056a3.827,3.827,0,0,1,3.8,3.973A3.782,3.782,0,0,1,65.031,22ZM78,11.567a2.434,2.434,0,0,0,2.5-2.234L79.327,9.11a1.351,1.351,0,0,1-2.648,0l-1.2.223A2.46,2.46,0,0,0,78,11.567Zm-4.77,12.046h1.851l5.632-8.137v8.137h1.93V12.444H80.81L75.163,20.6V12.444h-1.93ZM-27,41.561h1.851l5.632-8.137v8.137h1.931V30.393h-1.835l-5.648,8.153V30.393H-27Zm17.087,0h1.962V38.323l1.739-1.787L-2.4,41.561H-.023L-4.873,35.2l4.643-4.8H-2.64l-5.313,5.616V30.393H-9.915Zm11.567,0H3.614v-3.59H5.832c2.457,0,4.467-1.308,4.467-3.813,0-2.282-1.643-3.765-4.244-3.765h-4.4ZM3.614,36.2V32.18H5.9c1.468,0,2.409.686,2.409,1.994,0,1.2-.925,2.026-2.409,2.026Zm8.7,5.361h8.36V39.806h-6.4v-3h5.6V35.052h-5.6v-2.9H20.59V30.393H12.31Zm9.413,2.393h1.723l.191-2.393H31.5v2.393H33.13l.271-4.148H32.014V30.393H24.228v1.58c0,3.733-.495,6-1.42,7.834H21.723ZM24.9,39.806A14.821,14.821,0,0,0,26.11,33.44V32.164h3.941v7.642Zm10.259,1.755h1.851l5.632-8.137v8.137H44.57V30.393H42.735l-5.648,8.153V30.393H35.157Zm15.045,0H52.18V32.212h3.542V30.393H46.66v1.819H50.2Zm12.923.191A5.776,5.776,0,1,0,57.3,35.977,5.722,5.722,0,0,0,63.125,41.753Zm.032-1.8a3.827,3.827,0,0,1-3.8-3.973A3.782,3.782,0,0,1,63.125,32a3.827,3.827,0,0,1,3.8,3.973A3.782,3.782,0,0,1,63.157,39.95Zm8.2,1.611h1.93V33.584l3.494,5.233h.064l3.526-5.265v8.009h1.962V30.393h-2.09l-3.4,5.281-3.4-5.281h-2.09Z" transform="translate(72.642 82.366)" fill="#fff"/>
    </g>
    <g id="Group_122-9" data-name="Group 122" transform="translate(213.64 361.882)">
      <path id="Path_104-9" data-name="Path 104" d="M32.327,0h76.931a32.327,32.327,0,0,1,32.327,32.327v76.931a32.327,32.327,0,0,1-32.327,32.327H32.327A32.327,32.327,0,0,1,0,109.258V32.327A32.327,32.327,0,0,1,32.327,0Z" transform="translate(100.115 0) rotate(45)" fill="#1db4d4"/>
      <path id="Path_127" data-name="Path 127" d="M6.279,5.839c1.452,0,2.6-.718,3.542-2.617L14.177-5.5H12.055L8.992.989,5.514-5.5h-2.2L7.971,2.951A2.189,2.189,0,0,1,6.216,4.164a2.628,2.628,0,0,1-1.372-.351l-.75,1.468A4.4,4.4,0,0,0,6.279,5.839Zm9.748-.175H20.99c2.553,0,4.148-1.213,4.148-3.446,0-2.154-1.6-3.382-4.052-3.382H17.974V-3.734h6.382V-5.5H16.028Zm1.946-1.755V.494H20.91c1.452,0,2.266.558,2.266,1.643,0,1.372-.925,1.771-2.617,1.771Zm14.71,1.946A5.722,5.722,0,0,0,38.54.08,5.676,5.676,0,0,0,32.716-5.7,5.722,5.722,0,0,0,26.861.08,5.676,5.676,0,0,0,32.684,5.855Zm.032-1.8A3.827,3.827,0,0,1,28.919.08a3.782,3.782,0,0,1,3.765-3.973A3.827,3.827,0,0,1,36.481.08,3.782,3.782,0,0,1,32.716,4.052Zm8.2,1.611h1.962V2.074H45.1c2.457,0,4.467-1.308,4.467-3.813,0-2.281-1.643-3.765-4.244-3.765h-4.4ZM42.879.3V-3.718h2.281c1.468,0,2.409.686,2.409,1.994C47.57-.527,46.644.3,45.161.3Zm8.7,5.361h1.962V2.425L55.276.638l3.813,5.026h2.377L56.616-.7l4.643-4.8H58.85L53.537.111V-5.5H51.574Zm10.61,0h2.01l1.149-2.7h5.281l1.133,2.7h2.074L68.917-5.584H67.1Zm3.877-4.435,1.915-4.467,1.93,4.467ZM-38.832,23.612h1.93V15.635l3.494,5.233h.064l3.526-5.265v8.009h1.962V12.444h-2.09l-3.4,5.281-3.4-5.281h-2.09Zm15.779.175c1.452,0,2.6-.718,3.542-2.617l4.356-8.727h-2.122l-3.063,6.493-3.478-6.493h-2.2l4.659,8.456a2.189,2.189,0,0,1-1.755,1.213,2.628,2.628,0,0,1-1.372-.351l-.75,1.468A4.4,4.4,0,0,0-23.053,23.788ZM-8.12,23.8a5.763,5.763,0,0,0,4.531-1.978l-1.26-1.276A4.378,4.378,0,0,1-8.056,22a3.777,3.777,0,0,1-3.685-3.973,3.758,3.758,0,0,1,3.685-3.973,4.442,4.442,0,0,1,3.127,1.388l1.26-1.452A5.821,5.821,0,0,0-8.04,12.253a5.651,5.651,0,0,0-5.76,5.776A5.625,5.625,0,0,0-8.12,23.8ZM3.8,23.8a5.722,5.722,0,0,0,5.855-5.776A5.676,5.676,0,0,0,3.83,12.253a5.722,5.722,0,0,0-5.855,5.776A5.676,5.676,0,0,0,3.8,23.8ZM3.83,22a3.827,3.827,0,0,1-3.8-3.973A3.782,3.782,0,0,1,3.8,14.056a3.827,3.827,0,0,1,3.8,3.973A3.782,3.782,0,0,1,3.83,22Zm8.2,1.611h1.962v-3.59h2.218c2.457,0,4.467-1.308,4.467-3.813,0-2.281-1.643-3.765-4.244-3.765h-4.4Zm1.962-5.361V14.231h2.281c1.468,0,2.409.686,2.409,1.994,0,1.2-.925,2.026-2.409,2.026Zm7.738,5.361h2.01l1.149-2.7h5.281l1.133,2.7h2.074L28.464,12.365H26.645Zm3.877-4.435,1.915-4.467,1.93,4.467Zm14.471,4.435H41.93l5.632-8.137v8.137h1.93V12.444H47.658L42.01,20.6V12.444H40.079Zm17.087,0h5.169c2.489,0,4.132-1.069,4.132-3.063a2.748,2.748,0,0,0-2.218-2.744,2.66,2.66,0,0,0,1.6-2.489,2.523,2.523,0,0,0-.75-1.883,4.032,4.032,0,0,0-2.92-.989h-5.01ZM59.1,17.151V14.183h2.824c1.26,0,1.962.542,1.962,1.42,0,1.053-.846,1.548-2.106,1.548Zm0,4.723V18.81h3.111c1.548,0,2.3.558,2.3,1.5,0,1.037-.814,1.564-2.154,1.564Zm9.589,1.739h4.5c2.585,0,4.212-1.4,4.212-3.654s-1.691-3.494-4.2-3.494H70.632V12.444H68.686Zm1.946-1.755V18.172h2.489c1.484,0,2.329.622,2.329,1.771,0,1.26-.846,1.915-2.3,1.915Zm8.089,1.755h1.946V12.444H78.721Zm4.818,0h5.169c2.489,0,4.132-1.069,4.132-3.063a2.748,2.748,0,0,0-2.218-2.744,2.66,2.66,0,0,0,1.6-2.489,2.523,2.523,0,0,0-.75-1.883,4.032,4.032,0,0,0-2.92-.989h-5.01Zm1.93-6.462V14.183h2.824c1.26,0,1.962.542,1.962,1.42,0,1.053-.846,1.548-2.106,1.548Zm0,4.723V18.81h3.111c1.548,0,2.3.558,2.3,1.5,0,1.037-.814,1.564-2.154,1.564Zm14.917,1.93a5.776,5.776,0,1,0-5.823-5.776A5.722,5.722,0,0,0,100.387,23.8Zm.032-1.8a3.827,3.827,0,0,1-3.8-3.973,3.782,3.782,0,0,1,3.765-3.973,3.827,3.827,0,0,1,3.8,3.973A3.782,3.782,0,0,1,100.419,22Zm12-9.748a5.776,5.776,0,0,0-4.308,1.691l1.053,1.276a4.218,4.218,0,0,1,3.127-1.244c1.244,0,2.106.622,2.106,1.564,0,1.053-.878,1.627-2.3,1.627h-1.244v1.627h1.26c1.452,0,2.553.479,2.553,1.627,0,1.053-1.005,1.675-2.186,1.675a5.152,5.152,0,0,1-3.717-1.484l-1.069,1.356a6.407,6.407,0,0,0,4.834,1.835c2.489,0,4.1-1.42,4.1-3.271a2.739,2.739,0,0,0-2.186-2.68,2.723,2.723,0,0,0,1.9-2.6C116.342,13.513,114.73,12.253,112.417,12.253ZM-27.919,41.561h5.169c2.489,0,4.132-1.069,4.132-3.063a2.748,2.748,0,0,0-2.218-2.744,2.66,2.66,0,0,0,1.6-2.489,2.523,2.523,0,0,0-.75-1.883,4.032,4.032,0,0,0-2.92-.989h-5.01Zm1.931-6.462V32.132h2.824c1.26,0,1.962.542,1.962,1.42,0,1.053-.846,1.548-2.106,1.548Zm0,4.723V36.759h3.111c1.548,0,2.3.558,2.3,1.5,0,1.037-.814,1.564-2.154,1.564Zm14.774,1.93a5.763,5.763,0,0,0,4.531-1.978L-7.944,38.5a4.378,4.378,0,0,1-3.207,1.452,3.777,3.777,0,0,1-3.685-3.973A3.758,3.758,0,0,1-11.151,32a4.442,4.442,0,0,1,3.127,1.388l1.26-1.452A5.821,5.821,0,0,0-11.135,30.2a5.651,5.651,0,0,0-5.76,5.776A5.625,5.625,0,0,0-11.215,41.753Zm6.589-.191h8.36V39.806h-6.4v-3h5.6V35.052h-5.6v-2.9H3.655V30.393h-8.28Zm10.69,0H8.011v-9.4h5.568V30.393H6.064Zm14.806.191A5.776,5.776,0,1,0,20.9,30.2a5.776,5.776,0,1,0-.032,11.551Zm.032-1.8a3.827,3.827,0,0,1-3.8-3.973A3.782,3.782,0,0,1,20.87,32a3.827,3.827,0,0,1,3.8,3.973A3.782,3.782,0,0,1,20.9,39.95Zm12.987,1.611h1.931V33.584l3.494,5.233h.064L42.9,33.552v8.009h1.962V30.393h-2.09l-3.4,5.281-3.4-5.281h-2.09Zm15.779.175c1.452,0,2.6-.718,3.542-2.617l4.356-8.727H55.443L52.38,36.887,48.9,30.393H46.7l4.659,8.456A2.189,2.189,0,0,1,49.6,40.062a2.628,2.628,0,0,1-1.372-.351l-.75,1.468A4.4,4.4,0,0,0,49.668,41.737Zm14.933.016a5.763,5.763,0,0,0,4.531-1.978L67.872,38.5a4.378,4.378,0,0,1-3.207,1.452,3.777,3.777,0,0,1-3.685-3.973A3.758,3.758,0,0,1,64.665,32a4.442,4.442,0,0,1,3.127,1.388l1.26-1.452A5.821,5.821,0,0,0,64.681,30.2a5.776,5.776,0,0,0-.08,11.551Zm11.918,0A5.776,5.776,0,1,0,70.7,35.977,5.722,5.722,0,0,0,76.519,41.753Zm.032-1.8a3.827,3.827,0,0,1-3.8-3.973A3.782,3.782,0,0,1,76.519,32a3.827,3.827,0,0,1,3.8,3.973A3.782,3.782,0,0,1,76.551,39.95Zm8.2,1.611h1.962v-3.59h2.218c2.457,0,4.467-1.308,4.467-3.813,0-2.282-1.643-3.765-4.244-3.765h-4.4ZM86.714,36.2V32.18H89c1.468,0,2.409.686,2.409,1.994,0,1.2-.925,2.026-2.409,2.026Zm7.738,5.361h2.01l1.149-2.7h5.281l1.133,2.7H106.1l-4.914-11.248H99.366Zm3.877-4.435,1.915-4.467,1.93,4.467Z" transform="translate(61.785 82.366)" fill="#fff"/>
    </g>
    <g id="Group_122-10" data-name="Group 122" transform="translate(427.281 639.092)">
      <path id="Path_104-10" data-name="Path 104" d="M32.327,0h76.931a32.327,32.327,0,0,1,32.327,32.327v76.931a32.327,32.327,0,0,1-32.327,32.327H32.327A32.327,32.327,0,0,1,0,109.258V32.327A32.327,32.327,0,0,1,32.327,0Z" transform="translate(100.115 0) rotate(45)" fill="#1db4d4"/>
      <path id="Path_124" data-name="Path 124" d="M-25.656,8.057h1.723l.191-2.393h7.866V8.057h1.627l.271-4.148h-1.388V-5.5h-7.786v1.579c0,3.733-.495,6-1.42,7.834h-1.085Zm3.175-4.148a14.821,14.821,0,0,0,1.213-6.366V-3.734h3.941V3.909Zm10.259,1.755h8.36V3.909h-6.4v-3h5.6V-.846h-5.6v-2.9h6.318V-5.5h-8.28Zm10.69,0H.4V-2.314L3.892,2.919h.064L7.482-2.346V5.664H9.444V-5.5H7.354L3.956-.224.557-5.5h-2.09Zm19.177.191A5.722,5.722,0,0,0,23.5.08,5.676,5.676,0,0,0,17.677-5.7,5.722,5.722,0,0,0,11.821.08,5.676,5.676,0,0,0,17.645,5.855Zm.032-1.8A3.827,3.827,0,0,1,13.879.08a3.782,3.782,0,0,1,3.765-3.973A3.827,3.827,0,0,1,21.442.08,3.782,3.782,0,0,1,17.677,4.052Zm8.2,1.611H27.84V.957h5.329V5.664h1.962V-5.5H33.168V-.862H27.84V-5.5H25.877Zm14.87,0h1.978V-3.686h3.542V-5.5H37.2v1.819h3.542Zm6.637,0h2.01l1.149-2.7h5.281l1.133,2.7h2.074L54.117-5.584H52.3Zm3.877-4.435,1.915-4.467,1.931,4.467ZM69.146,5.664V2.7L70.9.7l3.335,4.962H76.6L72.177-.75l4.2-4.754H74.028L69.146.3V-5.5H67.2V.3L62.317-5.5H59.972L64.152-.75l-4.4,6.414H62.11L65.444.7,67.2,2.7V5.664Zm-78,18.14a5.763,5.763,0,0,0,4.531-1.978l-1.26-1.276A4.378,4.378,0,0,1-8.792,22a3.777,3.777,0,0,1-3.685-3.973,3.758,3.758,0,0,1,3.685-3.973,4.442,4.442,0,0,1,3.127,1.388l1.26-1.452a5.821,5.821,0,0,0-4.372-1.739,5.651,5.651,0,0,0-5.76,5.776A5.625,5.625,0,0,0-8.856,23.8Zm9.333-.191H2.456V14.263H6V12.444H-3.064v1.819H.478Zm6.637,0h2.01l1.149-2.7h5.281l1.133,2.7h2.074L13.847,12.365H12.029Zm3.877-4.435,1.915-4.467,1.93,4.467Zm9.684,4.435h1.962v-3.59h2.218c2.457,0,4.467-1.308,4.467-3.813,0-2.281-1.643-3.765-4.244-3.765h-4.4Zm1.962-5.361V14.231H24.92c1.468,0,2.409.686,2.409,1.994,0,1.2-.925,2.026-2.409,2.026ZM36.662,23.8a5.776,5.776,0,1,0-5.823-5.776A5.722,5.722,0,0,0,36.662,23.8Zm.032-1.8a3.827,3.827,0,0,1-3.8-3.973,3.782,3.782,0,0,1,3.765-3.973,3.827,3.827,0,0,1,3.8,3.973A3.782,3.782,0,0,1,36.694,22Zm8.2,1.611h1.946v-9.4H52.41V12.444H44.895ZM59.7,23.8a5.776,5.776,0,1,0-5.823-5.776A5.722,5.722,0,0,0,59.7,23.8Zm.032-1.8a3.827,3.827,0,0,1-3.8-3.973A3.782,3.782,0,0,1,59.7,14.056a3.827,3.827,0,0,1,3.8,3.973A3.782,3.782,0,0,1,59.733,22ZM-14.352,41.753a5.763,5.763,0,0,0,4.531-1.978l-1.26-1.276a4.378,4.378,0,0,1-3.207,1.452,3.777,3.777,0,0,1-3.686-3.973A3.758,3.758,0,0,1-14.288,32a4.442,4.442,0,0,1,3.127,1.388l1.26-1.452A5.821,5.821,0,0,0-14.272,30.2a5.651,5.651,0,0,0-5.76,5.776A5.625,5.625,0,0,0-14.352,41.753Zm9.333-.191H-3.04V32.212H.5V30.393H-8.561v1.819h3.542Zm7.594,0H4.538v-3.59H6.756c2.457,0,4.467-1.308,4.467-3.813,0-2.282-1.643-3.765-4.244-3.765h-4.4ZM4.538,36.2V32.18H6.819c1.468,0,2.409.686,2.409,1.994,0,1.2-.925,2.026-2.409,2.026Zm14.024,5.552A5.776,5.776,0,1,0,18.594,30.2a5.776,5.776,0,1,0-.032,11.551Zm.032-1.8a3.827,3.827,0,0,1-3.8-3.973A3.782,3.782,0,0,1,18.562,32a3.827,3.827,0,0,1,3.8,3.973A3.782,3.782,0,0,1,18.594,39.95Zm8.2,1.611h8.36V39.806h-6.4v-3h5.6V35.052h-5.6v-2.9h6.318V30.393h-8.28Zm10.69,0h1.962V36.855h5.329v4.707h1.962V30.393H44.775v4.643H39.447V30.393H37.484Zm12.125,0H51.46l5.632-8.137v8.137h1.931V30.393H57.188L51.54,38.546V30.393H49.61Zm11.439,0h2.313L66.138,37.7h2.473v3.861h1.946V30.393H65.6c-2.585,0-4.164,1.388-4.164,3.558A3.362,3.362,0,0,0,64.1,37.365Zm4.675-5.568c-1.4,0-2.313-.75-2.313-1.915,0-1.213.877-1.915,2.345-1.915h2.856v3.829Z" transform="translate(75.454 86.118)" fill="#fff"/>
    </g>
    <g id="Group_122-11" data-name="Group 122" transform="translate(213.64 639.769)">
      <path id="Path_104-11" data-name="Path 104" d="M32.327,0h76.931a32.327,32.327,0,0,1,32.327,32.327v76.931a32.327,32.327,0,0,1-32.327,32.327H32.327A32.327,32.327,0,0,1,0,109.258V32.327A32.327,32.327,0,0,1,32.327,0Z" transform="translate(100.115 0) rotate(45)" fill="#1db4d4"/>
      <path id="Path_122" data-name="Path 122" d="M-31.248,7.231H-29.4l5.632-8.137V7.231h1.931V-3.938H-23.67l-5.648,8.153V-3.938h-1.931Zm12.3,0h1.962V2.524h5.329V7.231h1.962V-3.938h-1.962V.705h-5.329V-3.938h-1.962Zm14.87,0H-2.1V-2.119H1.443V-3.938H-7.619v1.819h3.542Zm7.594,0h8.36V5.476h-6.4v-3h5.6V.721h-5.6v-2.9H11.8V-3.938H3.517Zm10.69,0h1.962V3.641h2.218c2.457,0,4.467-1.308,4.467-3.813,0-2.281-1.643-3.765-4.244-3.765h-4.4ZM16.169,1.87V-2.151H18.45c1.468,0,2.409.686,2.409,1.994,0,1.2-.925,2.026-2.409,2.026Zm8.7,5.361h4.5c2.585,0,4.212-1.4,4.212-3.654S31.884.083,29.379.083H26.811V-3.938H24.864Zm1.946-1.755V1.79H29.3c1.484,0,2.329.622,2.329,1.771,0,1.26-.846,1.915-2.3,1.915Zm8.823,1.755h8.36V5.476H37.6v-3h5.6V.721H37.6v-2.9h6.318V-3.938h-8.28Zm10.69,0h1.962V3.641H50.5c2.457,0,4.467-1.308,4.467-3.813,0-2.281-1.643-3.765-4.244-3.765h-4.4ZM48.285,1.87V-2.151h2.281c1.468,0,2.409.686,2.409,1.994,0,1.2-.925,2.026-2.409,2.026Zm8.7,5.361h1.962V2.524h5.329V7.231h1.962V-3.938H64.272V.705H58.943V-3.938H56.981Zm12.125,0h4.5c2.585,0,4.212-1.4,4.212-3.654S76.126.083,73.621.083H71.053V-3.938H69.106Zm1.946-1.755V1.79h2.489c1.484,0,2.329.622,2.329,1.771,0,1.26-.846,1.915-2.3,1.915Zm8.089,1.755h1.946V-3.938H79.141ZM88.73-4.815a2.434,2.434,0,0,0,2.5-2.234l-1.181-.223A1.318,1.318,0,0,1,88.73-6.187a1.306,1.306,0,0,1-1.324-1.085l-1.2.223A2.46,2.46,0,0,0,88.73-4.815ZM83.96,7.231H85.81L91.442-.906V7.231h1.93V-3.938H91.538L85.89,4.215V-3.938H83.96ZM-4.668,27.573h1.723l.191-2.393H5.112v2.393H6.74l.271-4.148H5.623V14.011H-2.163v1.58c0,3.733-.495,6-1.42,7.834H-4.668Zm3.175-4.148A14.821,14.821,0,0,0-.28,17.059V15.782H3.661v7.642ZM8.766,25.18h1.851l5.632-8.137V25.18h1.931V14.011H16.344L10.7,22.164V14.011H8.766Zm16.1-11.36a5.776,5.776,0,0,0-4.308,1.691l1.053,1.276a4.218,4.218,0,0,1,3.127-1.244c1.244,0,2.106.622,2.106,1.564,0,1.053-.878,1.627-2.3,1.627H23.3v1.627h1.26c1.452,0,2.553.479,2.553,1.627,0,1.053-1.005,1.675-2.186,1.675a5.152,5.152,0,0,1-3.717-1.484l-1.069,1.356a6.407,6.407,0,0,0,4.834,1.835c2.489,0,4.1-1.42,4.1-3.271a2.739,2.739,0,0,0-2.186-2.68,2.723,2.723,0,0,0,1.9-2.6C28.789,15.08,27.178,13.82,24.864,13.82Zm5.552,11.36h2.01l1.149-2.7h5.281l1.133,2.7h2.074L37.149,13.932H35.33Zm3.877-4.435,1.915-4.467,1.93,4.467Zm14.455-7.61a2.434,2.434,0,0,0,2.5-2.234l-1.181-.223a1.351,1.351,0,0,1-2.648,0l-1.2.223A2.46,2.46,0,0,0,48.748,13.134ZM43.978,25.18h1.851l5.632-8.137V25.18h1.931V14.011H51.556l-5.648,8.153V14.011h-1.93Zm12.3,0h1.962V20.473H63.57V25.18h1.962V14.011H63.57v4.643H58.241V14.011H56.279Z" transform="translate(69.326 90.534)" fill="#fff"/>
    </g>
  </g>
</svg>
