<svg xmlns="http://www.w3.org/2000/svg" width="314.649" height="385.094" viewBox="0 0 314.649 385.094">
  <g id="Group_123" data-name="Group 123" transform="translate(0 -72)">
    <g id="Group_122" data-name="Group 122" transform="translate(5.966 72)">
      <path id="Path_104" data-name="Path 104" d="M16.209,0H54.785A16.209,16.209,0,0,1,70.994,16.209V54.785A16.209,16.209,0,0,1,54.785,70.994H16.209A16.209,16.209,0,0,1,0,54.785V16.209A16.209,16.209,0,0,1,16.209,0Z" transform="translate(50.2 0) rotate(45)" fill="#1db4d4"/>
      <path id="Path_132" data-name="Path 132" d="M-14.62,0h.984V-4.712h2.6V0h.984V-5.6H-14.62Zm8.68.1A2.869,2.869,0,0,0-3-2.8a2.846,2.846,0,0,0-2.92-2.9A2.869,2.869,0,0,0-8.86-2.8,2.846,2.846,0,0,0-5.94.1Zm.016-.9A1.919,1.919,0,0,1-7.828-2.8,1.9,1.9,0,0,1-5.94-4.792,1.919,1.919,0,0,1-4.036-2.8,1.9,1.9,0,0,1-5.924-.808ZM-1.812,0h.928L1.94-4.08V0h.968V-5.6h-.92L-.844-1.512V-5.6h-.968ZM6.956.1A2.89,2.89,0,0,0,9.228-.9L8.6-1.536a2.2,2.2,0,0,1-1.608.728A1.894,1.894,0,0,1,5.14-2.8,1.884,1.884,0,0,1,6.988-4.792a2.227,2.227,0,0,1,1.568.7l.632-.728A2.919,2.919,0,0,0,7-5.7,2.834,2.834,0,0,0,4.108-2.8,2.82,2.82,0,0,0,6.956.1Zm3.3-.1h.984V-1.624l.872-.9L14.028,0H15.22L12.788-3.192,15.116-5.6H13.908L11.244-2.784V-5.6H10.26ZM-18.86,9.088a1.921,1.921,0,0,0,1.776-1.312L-14.9,3.4h-1.064L-17.5,6.656-19.244,3.4h-1.1l2.336,4.24a1.1,1.1,0,0,1-.88.608,1.318,1.318,0,0,1-.688-.176l-.376.736A2.207,2.207,0,0,0-18.86,9.088ZM-10.684,9H-9.7V3.4h-.984V5.9a2.722,2.722,0,0,1-1.416.44c-.7,0-1.04-.416-1.04-1.12V3.4h-.984V5.472a1.654,1.654,0,0,0,1.848,1.784,3.792,3.792,0,0,0,1.592-.472ZM-8.74,9h1.008l.576-1.352h2.648L-3.94,9H-2.9L-5.364,3.36h-.912ZM-6.8,6.776l.96-2.24.968,2.24ZM.66,9.1A2.89,2.89,0,0,0,2.932,8.1L2.3,7.464a2.2,2.2,0,0,1-1.608.728A1.894,1.894,0,0,1-1.156,6.2,1.884,1.884,0,0,1,.692,4.208a2.227,2.227,0,0,1,1.568.7l.632-.728A2.919,2.919,0,0,0,.7,3.3,2.834,2.834,0,0,0-2.188,6.2,2.82,2.82,0,0,0,.66,9.1ZM5.34,9h.992V4.312H8.108V3.4H3.564v.912H5.34ZM9.148,9h.984V7.376L11,6.48,12.916,9h1.192L11.676,5.808,14,3.4H12.8L10.132,6.216V3.4H9.148Zm5.32,0h1.008l.576-1.352H18.7L19.268,9h1.04L17.844,3.36h-.912Zm1.944-2.224.96-2.24.968,2.24Z" transform="translate(50.283 48.022)" fill="#fff"/>
    </g>
    <g id="Group_122-2" data-name="Group 122" transform="translate(207.565 72)">
      <path id="Path_104-2" data-name="Path 104" d="M16.209,0H54.785A16.209,16.209,0,0,1,70.994,16.209V54.785A16.209,16.209,0,0,1,54.785,70.994H16.209A16.209,16.209,0,0,1,0,54.785V16.209A16.209,16.209,0,0,1,16.209,0Z" transform="translate(50.2 0) rotate(45)" fill="#1db4d4"/>
      <path id="Path_131" data-name="Path 131" d="M-26.012,0h.984V-4.712h2.6V0h.984V-5.6h-4.568Zm8.68.1A2.869,2.869,0,0,0-14.4-2.8a2.846,2.846,0,0,0-2.92-2.9,2.869,2.869,0,0,0-2.936,2.9A2.846,2.846,0,0,0-17.332.1Zm.016-.9A1.919,1.919,0,0,1-19.22-2.8a1.9,1.9,0,0,1,1.888-1.992,1.919,1.919,0,0,1,1.9,1.992A1.9,1.9,0,0,1-17.316-.808ZM-13.2.064c1.1,0,1.752-.712,1.752-4.272v-.5h1.936V0h.984V-5.6h-3.84v1.1c0,3.352-.528,3.712-1.1,3.712a1.125,1.125,0,0,1-.32-.048l-.1.808A3.269,3.269,0,0,0-13.2.064Zm7.088.024A1.921,1.921,0,0,0-4.34-1.224L-2.156-5.6H-3.22L-4.756-2.344-6.5-5.6H-7.6l2.336,4.24a1.1,1.1,0,0,1-.88.608,1.318,1.318,0,0,1-.688-.176l-.376.736A2.207,2.207,0,0,0-6.116.088ZM2.06,0h.984V-5.6H2.06v2.5a2.722,2.722,0,0,1-1.416.44c-.7,0-1.04-.416-1.04-1.12V-5.6H-1.38v2.072A1.654,1.654,0,0,0,.468-1.744,3.792,3.792,0,0,0,2.06-2.216ZM4.484,0H8.676V-.88H5.468v-1.5H8.276v-.88H5.468V-4.72H8.636V-5.6H4.484Zm5.36,0h.984V-2.36H13.5V0h.984V-5.6H13.5v2.328H10.828V-5.6H9.844Zm6.08,0h.928l2.824-4.08V0h.968V-5.6h-.92L16.892-1.512V-5.6h-.968Zm6.168,0h4.192V-.88H23.076v-1.5h2.808v-.88H23.076V-4.72h3.168V-5.6H22.092Zm-58.62,9h.984V7.2h1.112c1.232,0,2.24-.656,2.24-1.912A1.887,1.887,0,0,0-34.32,3.4h-2.208Zm.984-2.688V4.3H-34.4c.736,0,1.208.344,1.208,1,0,.6-.464,1.016-1.208,1.016ZM-31.664,9h1.008l.576-1.352h2.648L-26.864,9h1.04l-2.464-5.64H-29.2Zm1.944-2.224.96-2.24.968,2.24ZM-22.96,3.3a2.9,2.9,0,0,0-2.16.848l.528.64a2.115,2.115,0,0,1,1.568-.624c.624,0,1.056.312,1.056.784,0,.528-.44.816-1.152.816h-.624v.816h.632c.728,0,1.28.24,1.28.816,0,.528-.5.84-1.1.84A2.583,2.583,0,0,1-24.792,7.5l-.536.68A3.213,3.213,0,0,0-22.9,9.1c1.248,0,2.056-.712,2.056-1.64a1.373,1.373,0,0,0-1.1-1.344,1.365,1.365,0,0,0,.952-1.3C-20.992,3.936-21.8,3.3-22.96,3.3ZM-19.7,9h.984V7.2H-17.6c1.232,0,2.24-.656,2.24-1.912A1.887,1.887,0,0,0-17.488,3.4H-19.7Zm.984-2.688V4.3h1.144c.736,0,1.208.344,1.208,1,0,.6-.464,1.016-1.208,1.016ZM-14.352,9h4.192V8.12h-3.208v-1.5h2.808v-.88h-2.808V4.28H-10.2V3.4h-4.152Zm5.36,0h7.336V3.4h-.976V8.12h-2.2V3.4h-.984V8.12h-2.2V3.4h-.976ZM-.216,9H3.976V8.12H.768v-1.5H3.576v-.88H.768V4.28H3.936V3.4H-.216Zm5.36,0h.984V6.64H8.8V9h.984V3.4H8.8V5.728H6.128V3.4H5.144Zm6.08,0h.928l2.824-4.08V9h.968V3.4h-.92L12.192,7.488V3.4h-.968ZM16.96,9h1.16l1.392-1.936h1.24V9h.976V3.4H19.24c-1.3,0-2.088.7-2.088,1.784A1.686,1.686,0,0,0,18.488,6.9ZM19.3,6.208c-.7,0-1.16-.376-1.16-.96,0-.608.44-.96,1.176-.96h1.432v1.92ZM25.568,9h.984V6.64h2.672V9h.984V3.4h-.984V5.728H26.552V3.4h-.984Zm5.6,0h1.008l.576-1.352H35.4L35.968,9h1.04L34.544,3.36h-.912Zm1.944-2.224.96-2.24.968,2.24ZM-34.244,18.1a2.89,2.89,0,0,0,2.272-.992l-.632-.64a2.2,2.2,0,0,1-1.608.728A1.894,1.894,0,0,1-36.06,15.2a1.884,1.884,0,0,1,1.848-1.992,2.227,2.227,0,0,1,1.568.7l.632-.728A2.919,2.919,0,0,0-34.2,12.3a2.834,2.834,0,0,0-2.888,2.9A2.82,2.82,0,0,0-34.244,18.1Zm4.68-.1h.992V13.312H-26.8V12.4H-31.34v.912h1.776Zm3.808,0h.984V16.2h1.112c1.232,0,2.24-.656,2.24-1.912A1.887,1.887,0,0,0-23.548,12.4h-2.208Zm.984-2.688V13.3h1.144c.736,0,1.208.344,1.208,1,0,.6-.464,1.016-1.208,1.016ZM-17.74,18.1A2.869,2.869,0,0,0-14.8,15.2a2.846,2.846,0,0,0-2.92-2.9,2.869,2.869,0,0,0-2.936,2.9A2.846,2.846,0,0,0-17.74,18.1Zm.016-.9a1.919,1.919,0,0,1-1.9-1.992,1.9,1.9,0,0,1,1.888-1.992,1.919,1.919,0,0,1,1.9,1.992A1.9,1.9,0,0,1-17.724,17.192Zm4.112.808h.928l2.824-4.08V18h.968V12.4h-.92l-2.832,4.088V12.4h-.968Zm7.544,0h.992V13.312H-3.3V12.4H-7.844v.912h1.776Zm3.808,0H1.932v-.88H-1.276v-1.5H1.532v-.88H-1.276V13.28H1.892V12.4H-2.26Zm5.36.064c1.1,0,1.752-.712,1.752-4.272v-.5H6.788V18h.984V12.4H3.932v1.1c0,3.352-.528,3.712-1.1,3.712a1.125,1.125,0,0,1-.32-.048l-.1.808A3.269,3.269,0,0,0,3.1,18.064ZM9.22,18h2.256c1.3,0,2.112-.7,2.112-1.832s-.848-1.752-2.1-1.752H10.2V12.4H9.22Zm.976-.88V15.272h1.248c.744,0,1.168.312,1.168.888,0,.632-.424.96-1.152.96Zm7.024.976a2.89,2.89,0,0,0,2.272-.992l-.632-.64a2.2,2.2,0,0,1-1.608.728A1.894,1.894,0,0,1,15.4,15.2a1.884,1.884,0,0,1,1.848-1.992,2.227,2.227,0,0,1,1.568.7l.632-.728A2.919,2.919,0,0,0,17.26,12.3a2.9,2.9,0,0,0-.04,5.792ZM21.9,18h.992V13.312h1.776V12.4H20.124v.912H21.9Zm3.808,0H28.3c1.248,0,2.072-.536,2.072-1.536a1.378,1.378,0,0,0-1.112-1.376,1.334,1.334,0,0,0,.8-1.248,1.265,1.265,0,0,0-.376-.944,2.022,2.022,0,0,0-1.464-.5H25.708Zm.968-3.24V13.272h1.416c.632,0,.984.272.984.712,0,.528-.424.776-1.056.776Zm0,2.368V15.592h1.56c.776,0,1.152.28,1.152.752,0,.52-.408.784-1.08.784Zm7.48.968a2.9,2.9,0,1,0-2.92-2.9A2.869,2.869,0,0,0,34.156,18.1Zm.016-.9a1.919,1.919,0,0,1-1.9-1.992,1.9,1.9,0,0,1,1.888-1.992,1.919,1.919,0,0,1,1.9,1.992A1.9,1.9,0,0,1,34.172,17.192Z" transform="translate(51.022 44.14)" fill="#fff"/>
    </g>
    <g id="Group_122-3" data-name="Group 122" transform="translate(53.819 145.161)">
      <path id="Path_104-3" data-name="Path 104" d="M16.209,0H54.785A16.209,16.209,0,0,1,70.994,16.209V54.785A16.209,16.209,0,0,1,54.785,70.994H16.209A16.209,16.209,0,0,1,0,54.785V16.209A16.209,16.209,0,0,1,16.209,0Z" transform="translate(50.2 0) rotate(45)" fill="#1db4d4"/>
      <path id="Path_129" data-name="Path 129" d="M-33.264,0h.984V-4.712h2.6V0h.984V-5.6h-4.568Zm8.68.1a2.869,2.869,0,0,0,2.936-2.9,2.846,2.846,0,0,0-2.92-2.9A2.869,2.869,0,0,0-27.5-2.8,2.846,2.846,0,0,0-24.584.1Zm.016-.9a1.919,1.919,0,0,1-1.9-1.992,1.9,1.9,0,0,1,1.888-1.992A1.919,1.919,0,0,1-22.68-2.8,1.9,1.9,0,0,1-24.568-.808ZM-21.1,1.2h.864l.1-1.2h3.944V1.2h.816l.136-2.08h-.7V-5.6h-3.9v.792A8.386,8.386,0,0,1-20.552-.88H-21.1ZM-19.5-.88A7.432,7.432,0,0,0-18.9-4.072v-.64h1.976V-.88ZM-14.36,0h.984V-1.624l.872-.9L-10.592,0H-9.4l-2.432-3.192L-9.5-5.6h-1.208l-2.664,2.816V-5.6h-.984Zm5.8.064c1.1,0,1.752-.712,1.752-4.272v-.5h1.936V0h.984V-5.6h-3.84v1.1c0,3.352-.528,3.712-1.1,3.712a1.125,1.125,0,0,1-.32-.048l-.1.808A3.269,3.269,0,0,0-8.56.064ZM2.128.1a2.733,2.733,0,0,0,2.7-2.9A2.716,2.716,0,0,0,2.144-5.7,2.686,2.686,0,0,0-.528-3.256h-.928V-5.6H-2.44V0h.984V-2.376h.92A2.664,2.664,0,0,0,2.128.1Zm.016-.888A1.823,1.823,0,0,1,.456-2.8a1.8,1.8,0,0,1,1.672-2,1.821,1.821,0,0,1,1.7,2A1.808,1.808,0,0,1,2.144-.792ZM9.312,0H10.3V-5.6H9.312v2.5a2.722,2.722,0,0,1-1.416.44c-.7,0-1.04-.416-1.04-1.12V-5.6H5.872v2.072A1.654,1.654,0,0,0,7.72-1.744a3.792,3.792,0,0,0,1.592-.472Zm2.424,0h4.192V-.88H12.72v-1.5h2.808v-.88H12.72V-4.72h3.168V-5.6H11.736ZM17.1,0h.984V-2.36h2.672V0h.984V-5.6h-.984v2.328H18.08V-5.6H17.1Zm6.08,0H24.1l2.824-4.08V0H27.9V-5.6h-.92L24.144-1.512V-5.6h-.968Zm6.168,0h4.192V-.88H30.328v-1.5h2.808v-.88H30.328V-4.72H33.5V-5.6H29.344ZM-36.884,9h.984V7.376l.872-.9L-33.116,9h1.192l-2.432-3.192L-32.028,3.4h-1.208L-35.9,6.216V3.4h-.984Zm8.472.1a2.869,2.869,0,0,0,2.936-2.9A2.846,2.846,0,0,0-28.4,3.3a2.869,2.869,0,0,0-2.936,2.9A2.846,2.846,0,0,0-28.412,9.1Zm.016-.9A1.919,1.919,0,0,1-30.3,6.2a1.9,1.9,0,0,1,1.888-1.992,1.919,1.919,0,0,1,1.9,1.992A1.9,1.9,0,0,1-28.4,8.192ZM-24.284,9h.968V5l1.752,2.624h.032l1.768-2.64V9h.984V3.4h-1.048l-1.7,2.648-1.7-2.648h-1.048Zm6.944,0h.968V5l1.752,2.624h.032l1.768-2.64V9h.984V3.4h-1.048l-1.7,2.648-1.7-2.648H-17.34Zm7.912.088A1.921,1.921,0,0,0-7.652,7.776L-5.468,3.4H-6.532L-8.068,6.656-9.812,3.4h-1.1L-8.58,7.64a1.1,1.1,0,0,1-.88.608,1.318,1.318,0,0,1-.688-.176l-.376.736A2.207,2.207,0,0,0-9.428,9.088ZM-4.54,9h.984V6.64H-.884V9H.1V3.4H-.884V5.728H-3.556V3.4H-4.54ZM1.54,9h.928L5.292,4.92V9H6.26V3.4H5.34L2.508,7.488V3.4H1.54ZM7.708,9h.984V7.376l.872-.9L11.476,9h1.192L10.236,5.808,12.564,3.4H11.356L8.692,6.216V3.4H7.708Zm5.32,0h1.008l.576-1.352H17.26L17.828,9h1.04L16.4,3.36h-.912Zm1.944-2.224.96-2.24.968,2.24ZM24.156,10.2h.816l.136-2.088h-.7V3.4h-.976V8.112H20.812V3.4h-.984V9h4.328ZM25.988,9h.928L29.74,4.92V9h.968V3.4h-.92L26.956,7.488V3.4h-.968Zm8.56-6.04A1.221,1.221,0,0,0,35.8,1.84l-.592-.112a.677.677,0,0,1-1.328,0l-.6.112A1.233,1.233,0,0,0,34.548,2.96ZM32.156,9h.928l2.824-4.08V9h.968V3.4h-.92L33.124,7.488V3.4h-.968Z" transform="translate(50.146 49.022)" fill="#fff"/>
    </g>
    <g id="Group_122-4" data-name="Group 122" transform="translate(160.944 145.161)">
      <path id="Path_104-4" data-name="Path 104" d="M16.209,0H54.785A16.209,16.209,0,0,1,70.994,16.209V54.785A16.209,16.209,0,0,1,54.785,70.994H16.209A16.209,16.209,0,0,1,0,54.785V16.209A16.209,16.209,0,0,1,16.209,0Z" transform="translate(50.2 0) rotate(45)" fill="#1db4d4"/>
      <path id="Path_128" data-name="Path 128" d="M-30.52,0h.984V-1.8h1.112c1.232,0,2.24-.656,2.24-1.912A1.887,1.887,0,0,0-28.312-5.6H-30.52Zm.984-2.688V-4.7h1.144c.736,0,1.208.344,1.208,1,0,.6-.464,1.016-1.208,1.016ZM-25.176,0h4.192V-.88h-3.208v-1.5h2.808v-.88h-2.808V-4.72h3.168V-5.6h-4.152Zm5.36,0h.976V-4.712h2.792V-5.6h-3.768Zm4.752,0h.928l2.824-4.08V0h.968V-5.6h-.92L-14.1-1.512V-5.6h-.968ZM-6.3.1A2.89,2.89,0,0,0-4.024-.9l-.632-.64a2.2,2.2,0,0,1-1.608.728A1.894,1.894,0,0,1-8.112-2.8,1.884,1.884,0,0,1-6.264-4.792,2.227,2.227,0,0,1-4.7-4.1l.632-.728A2.919,2.919,0,0,0-6.256-5.7,2.834,2.834,0,0,0-9.144-2.8,2.82,2.82,0,0,0-6.3.1Zm4.68-.1h.992V-4.688H1.152V-5.6H-3.392v.912h1.776ZM2.192,0h.984V-1.8H4.288c1.232,0,2.24-.656,2.24-1.912A1.887,1.887,0,0,0,4.4-5.6H2.192Zm.984-2.688V-4.7H4.32c.736,0,1.208.344,1.208,1,0,.6-.464,1.016-1.208,1.016ZM7.056,0H8.064L8.64-1.352h2.648L11.856,0H12.9L10.432-5.64H9.52ZM9-2.224l.96-2.24.968,2.24ZM18.184,1.2H19l.136-2.088h-.7V-5.6h-.976V-.888H14.84V-5.6h-.984V0h4.328ZM20.016,0h.928l2.824-4.08V0h.968V-5.6h-.92L20.984-1.512V-5.6h-.968Zm5.736,0h1.16L28.3-1.936h1.24V0h.976V-5.6H28.032c-1.3,0-2.088.7-2.088,1.784A1.686,1.686,0,0,0,27.28-2.1ZM28.1-2.792c-.7,0-1.16-.376-1.16-.96,0-.608.44-.96,1.176-.96h1.432v1.92ZM-37.392,9h.976V4.288h2.792V3.4h-3.768Zm7.424.1a2.869,2.869,0,0,0,2.936-2.9,2.846,2.846,0,0,0-2.92-2.9,2.869,2.869,0,0,0-2.936,2.9A2.846,2.846,0,0,0-29.968,9.1Zm.016-.9a1.919,1.919,0,0,1-1.9-1.992,1.9,1.9,0,0,1,1.888-1.992,1.919,1.919,0,0,1,1.9,1.992A1.9,1.9,0,0,1-29.952,8.192ZM-24.464,9h.992V4.312H-21.7V3.4H-26.24v.912h1.776Zm6.48.1a2.869,2.869,0,0,0,2.936-2.9,2.846,2.846,0,0,0-2.92-2.9A2.869,2.869,0,0,0-20.9,6.2,2.846,2.846,0,0,0-17.984,9.1Zm.016-.9a1.919,1.919,0,0,1-1.9-1.992,1.9,1.9,0,0,1,1.888-1.992A1.919,1.919,0,0,1-16.08,6.2,1.9,1.9,0,0,1-17.968,8.192ZM-13.856,9h2.592c1.248,0,2.072-.536,2.072-1.536A1.378,1.378,0,0,0-10.3,6.088,1.334,1.334,0,0,0-9.5,4.84,1.265,1.265,0,0,0-9.88,3.9a2.022,2.022,0,0,0-1.464-.5h-2.512Zm.968-3.24V4.272h1.416c.632,0,.984.272.984.712,0,.528-.424.776-1.056.776Zm0,2.368V6.592h1.56c.776,0,1.152.28,1.152.752,0,.52-.408.784-1.08.784Zm7.48.968A2.869,2.869,0,0,0-2.472,6.2a2.846,2.846,0,0,0-2.92-2.9A2.869,2.869,0,0,0-8.328,6.2,2.846,2.846,0,0,0-5.408,9.1Zm.016-.9A1.919,1.919,0,0,1-7.3,6.2,1.9,1.9,0,0,1-5.408,4.208,1.919,1.919,0,0,1-3.5,6.2,1.9,1.9,0,0,1-5.392,8.192ZM-1.28,9H-.3V4.288H2.488V3.4H-1.28Zm7.424.1A2.869,2.869,0,0,0,9.08,6.2,2.846,2.846,0,0,0,6.16,3.3,2.869,2.869,0,0,0,3.224,6.2,2.846,2.846,0,0,0,6.144,9.1Zm.016-.9A1.919,1.919,0,0,1,4.256,6.2,1.9,1.9,0,0,1,6.144,4.208,1.919,1.919,0,0,1,8.048,6.2,1.9,1.9,0,0,1,6.16,8.192ZM12.032,10.2H12.9l.1-1.2h3.944v1.2h.816l.136-2.08h-.7V3.4h-3.9v.792a8.386,8.386,0,0,1-.712,3.928h-.544Zm1.592-2.08a7.432,7.432,0,0,0,.608-3.192v-.64h1.976V8.12ZM21.44,9.1a2.869,2.869,0,0,0,2.936-2.9,2.928,2.928,0,0,0-5.856,0A2.846,2.846,0,0,0,21.44,9.1Zm.016-.9a1.919,1.919,0,0,1-1.9-1.992A1.9,1.9,0,0,1,21.44,4.208a1.919,1.919,0,0,1,1.9,1.992A1.9,1.9,0,0,1,21.456,8.192ZM25.568,9h.968V5l1.752,2.624h.032l1.768-2.64V9h.984V3.4H30.024l-1.7,2.648L26.616,3.4H25.568Zm6.464,0H33.04l.576-1.352h2.648L36.832,9h1.04L35.408,3.36H34.5Zm1.944-2.224.96-2.24.968,2.24Z" transform="translate(49.758 49.022)" fill="#fff"/>
    </g>
    <g id="Group_122-5" data-name="Group 122" transform="translate(53.819 284.501)">
      <path id="Path_104-5" data-name="Path 104" d="M16.209,0H54.785A16.209,16.209,0,0,1,70.994,16.209V54.785A16.209,16.209,0,0,1,54.785,70.994H16.209A16.209,16.209,0,0,1,0,54.785V16.209A16.209,16.209,0,0,1,16.209,0Z" transform="translate(50.2 0) rotate(45)" fill="#1db4d4"/>
      <path id="Path_126" data-name="Path 126" d="M-17.668,0h.984V-1.8h1.112c1.232,0,2.24-.656,2.24-1.912A1.887,1.887,0,0,0-15.46-5.6h-2.208Zm.984-2.688V-4.7h1.144c.736,0,1.208.344,1.208,1,0,.6-.464,1.016-1.208,1.016ZM-12.8,0H-11.8l.576-1.352h2.648L-8,0h1.04L-9.428-5.64h-.912Zm1.944-2.224.96-2.24.968,2.24ZM-6,0h2.488c1.28,0,2.08-.608,2.08-1.728,0-1.08-.8-1.7-2.032-1.7h-1.56V-4.712h3.2V-5.6H-6Zm.976-.88V-2.592h1.472c.728,0,1.136.28,1.136.824,0,.688-.464.888-1.312.888ZM2.348.1A2.869,2.869,0,0,0,5.284-2.8a2.846,2.846,0,0,0-2.92-2.9A2.869,2.869,0,0,0-.572-2.8,2.846,2.846,0,0,0,2.348.1Zm.016-.9A1.919,1.919,0,0,1,.46-2.8,1.9,1.9,0,0,1,2.348-4.792,1.919,1.919,0,0,1,4.252-2.8,1.9,1.9,0,0,1,2.364-.808ZM7.852,0h.992V-4.688H10.62V-5.6H6.076v.912H7.852ZM11.66,0h2.256c1.3,0,2.112-.7,2.112-1.832s-.848-1.752-2.1-1.752H12.636V-5.6H11.66Zm.976-.88V-2.728h1.248c.744,0,1.168.312,1.168.888,0,.632-.424.96-1.152.96ZM16.692,0h.976V-5.6h-.976Zm-52.22,9h.984V4.288h2.6V9h.984V3.4h-4.568Zm8.68.1a2.869,2.869,0,0,0,2.936-2.9,2.846,2.846,0,0,0-2.92-2.9,2.869,2.869,0,0,0-2.936,2.9A2.846,2.846,0,0,0-26.848,9.1Zm.016-.9a1.919,1.919,0,0,1-1.9-1.992,1.9,1.9,0,0,1,1.888-1.992,1.919,1.919,0,0,1,1.9,1.992A1.9,1.9,0,0,1-26.832,8.192ZM-20.32,9h2.592c1.248,0,2.072-.536,2.072-1.536a1.378,1.378,0,0,0-1.112-1.376,1.334,1.334,0,0,0,.8-1.248,1.265,1.265,0,0,0-.376-.944,2.022,2.022,0,0,0-1.464-.5H-20.32Zm.968-3.24V4.272h1.416c.632,0,.984.272.984.712,0,.528-.424.776-1.056.776Zm0,2.368V6.592h1.56c.776,0,1.152.28,1.152.752,0,.52-.408.784-1.08.784ZM-14.544,9h.984V6.64h2.672V9H-9.9V3.4h-.984V5.728H-13.56V3.4h-.984Zm7.048.088A1.921,1.921,0,0,0-5.72,7.776L-3.536,3.4H-4.6L-6.136,6.656-7.88,3.4h-1.1l2.336,4.24a1.1,1.1,0,0,1-.88.608,1.318,1.318,0,0,1-.688-.176l-.376.736A2.207,2.207,0,0,0-7.5,9.088ZM-1.232,9H-.24V4.312H1.536V3.4H-3.008v.912h1.776ZM2.576,9H3.56V7.2H4.672c1.232,0,2.24-.656,2.24-1.912A1.887,1.887,0,0,0,4.784,3.4H2.576ZM3.56,6.312V4.3H4.7c.736,0,1.208.344,1.208,1,0,.6-.464,1.016-1.208,1.016ZM7.92,9h4.192V8.12H8.9v-1.5h2.808v-.88H8.9V4.28h3.168V3.4H7.92Zm5.36,0h.984V6.64h2.672V9h.984V3.4h-.984V5.728H14.264V3.4H13.28Zm6.08,0h.984V6.64h2.672V9H24V3.4h-.984V5.728H20.344V3.4H19.36Zm6.08,0h4.192V8.12H26.424v-1.5h2.808v-.88H26.424V4.28h3.168V3.4H25.44Zm7.752-6.04a1.221,1.221,0,0,0,1.256-1.12l-.592-.112a.677.677,0,0,1-1.328,0l-.6.112A1.233,1.233,0,0,0,33.192,2.96ZM30.8,9h.928l2.824-4.08V9h.968V3.4H34.6L31.768,7.488V3.4H30.8Zm-56.568,9h.928l2.824-4.08V18h.968V12.4h-.92L-24.8,16.488V12.4h-.968Zm8.568,0h2.592c1.248,0,2.072-.536,2.072-1.536a1.378,1.378,0,0,0-1.112-1.376,1.334,1.334,0,0,0,.8-1.248,1.265,1.265,0,0,0-.376-.944,2.022,2.022,0,0,0-1.464-.5H-17.2Zm.968-3.24V13.272h1.416c.632,0,.984.272.984.712,0,.528-.424.776-1.056.776Zm0,2.368V15.592h1.56c.776,0,1.152.28,1.152.752,0,.52-.408.784-1.08.784Zm4.808.872h.984V15.64h2.672V18h.984V12.4h-.984v2.328H-10.44V12.4h-.984Zm6.08,0h4.192v-.88H-4.36v-1.5h2.808v-.88H-4.36V13.28h3.168V12.4H-5.344Zm5.36,0H7.352V12.4H6.376v4.72h-2.2V12.4H3.192v4.72H.992V12.4H.016Zm8.776,0h.984V15.64h2.672V18h.984V12.4h-.984v2.328H9.776V12.4H8.792Zm6.08,0H15.8l2.824-4.08V18h.968V12.4h-.92L15.84,16.488V12.4h-.968Zm8.56-6.04a1.221,1.221,0,0,0,1.256-1.12l-.592-.112a.677.677,0,0,1-1.328,0l-.6.112A1.233,1.233,0,0,0,23.432,11.96ZM21.04,18h.928l2.824-4.08V18h.968V12.4h-.92l-2.832,4.088V12.4H21.04Zm-52.692,9.1a2.869,2.869,0,0,0,2.936-2.9,2.846,2.846,0,0,0-2.92-2.9,2.869,2.869,0,0,0-2.936,2.9A2.846,2.846,0,0,0-31.652,27.1Zm.016-.9a1.919,1.919,0,0,1-1.9-1.992,1.9,1.9,0,0,1,1.888-1.992,1.919,1.919,0,0,1,1.9,1.992A1.9,1.9,0,0,1-31.636,26.192Zm5.488.808h.992V22.312h1.776V21.4h-4.544v.912h1.776Zm3.168,1.2h.864l.1-1.2h3.944v1.2h.816l.136-2.08h-.7V21.4h-3.9v.792a8.386,8.386,0,0,1-.712,3.928h-.544Zm1.592-2.08a7.432,7.432,0,0,0,.608-3.192v-.64H-18.8V26.12Zm5.144.88h4.192v-.88H-15.26v-1.5h2.808v-.88H-15.26V22.28h3.168V21.4h-4.152Zm5.36.064c1.1,0,1.752-.712,1.752-4.272v-.5H-7.2V27h.984V21.4h-3.84v1.1c0,3.352-.528,3.712-1.1,3.712a1.125,1.125,0,0,1-.32-.048l-.1.808A3.269,3.269,0,0,0-10.884,27.064ZM-4.764,27h.984V25.376l.872-.9L-1,27H.2l-2.432-3.192L.092,21.4H-1.116L-3.78,24.216V21.4h-.984Zm5.8,0h.928l2.824-4.08V27h.968V21.4h-.92L2,25.488V21.4H1.036Zm7.928,1.2h.864l.1-1.2h3.944v1.2h.816l.136-2.08h-.7V21.4h-3.9v.792a8.386,8.386,0,0,1-.712,3.928H8.964Zm1.592-2.08a7.432,7.432,0,0,0,.608-3.192v-.64H13.14V26.12Zm7.816.976a2.9,2.9,0,1,0-2.92-2.9A2.869,2.869,0,0,0,18.372,27.1Zm.016-.9a1.919,1.919,0,0,1-1.9-1.992,1.9,1.9,0,0,1,1.888-1.992,1.919,1.919,0,0,1,1.9,1.992A1.9,1.9,0,0,1,18.388,26.192ZM22.5,27h.968V23l1.752,2.624h.032l1.768-2.64V27H28V21.4H26.956l-1.7,2.648-1.7-2.648H22.5Zm6.464,0h1.008l.576-1.352H33.2L33.764,27H34.8L32.34,21.36h-.912Zm1.944-2.224.96-2.24.968,2.24Z" transform="translate(50.311 35.871)" fill="#fff"/>
    </g>
    <g id="Group_122-6" data-name="Group 122" transform="translate(160.944 284.501)">
      <path id="Path_104-6" data-name="Path 104" d="M16.209,0H54.785A16.209,16.209,0,0,1,70.994,16.209V54.785A16.209,16.209,0,0,1,54.785,70.994H16.209A16.209,16.209,0,0,1,0,54.785V16.209A16.209,16.209,0,0,1,16.209,0Z" transform="translate(50.2 0) rotate(45)" fill="#1db4d4"/>
      <path id="Path_125" data-name="Path 125" d="M-25.332.088a1.921,1.921,0,0,0,1.776-1.312L-21.372-5.6h-1.064l-1.536,3.256L-25.716-5.6h-1.1l2.336,4.24a1.1,1.1,0,0,1-.88.608,1.318,1.318,0,0,1-.688-.176l-.376.736A2.207,2.207,0,0,0-25.332.088ZM-17.844.1A2.89,2.89,0,0,0-15.572-.9l-.632-.64a2.2,2.2,0,0,1-1.608.728A1.894,1.894,0,0,1-19.66-2.8a1.884,1.884,0,0,1,1.848-1.992,2.227,2.227,0,0,1,1.568.7l.632-.728A2.919,2.919,0,0,0-17.8-5.7a2.834,2.834,0,0,0-2.888,2.9A2.82,2.82,0,0,0-17.844.1Zm4.68-.1h.992V-4.688H-10.4V-5.6H-14.94v.912h1.776Zm3.328,0h1.008l.576-1.352H-5.6L-5.036,0H-4L-6.46-5.64h-.912Zm1.944-2.224.96-2.24.968,2.24ZM-3.036,0h.984V-2.36H.62V0H1.6V-5.6H.62v2.328H-2.052V-5.6h-.984ZM5.716.1A2.869,2.869,0,0,0,8.652-2.8a2.846,2.846,0,0,0-2.92-2.9A2.869,2.869,0,0,0,2.8-2.8,2.846,2.846,0,0,0,5.716.1Zm.016-.9A1.919,1.919,0,0,1,3.828-2.8,1.9,1.9,0,0,1,5.716-4.792,1.919,1.919,0,0,1,7.62-2.8,1.9,1.9,0,0,1,5.732-.808ZM9.844,0h2.592c1.248,0,2.072-.536,2.072-1.536A1.378,1.378,0,0,0,13.4-2.912a1.334,1.334,0,0,0,.8-1.248A1.265,1.265,0,0,0,13.82-5.1a2.022,2.022,0,0,0-1.464-.5H9.844Zm.968-3.24V-4.728h1.416c.632,0,.984.272.984.712,0,.528-.424.776-1.056.776Zm0,2.368V-2.408h1.56c.776,0,1.152.28,1.152.752,0,.52-.408.784-1.08.784ZM15.62,0H16.6V-1.624l.872-.9L19.388,0H20.58L18.148-3.192,20.476-5.6H19.268L16.6-2.784V-5.6H15.62Zm5.32,0h1.008l.576-1.352h2.648L25.74,0h1.04L24.316-5.64H23.4Zm1.944-2.224.96-2.24.968,2.24ZM-33.556,3.3a2.9,2.9,0,0,0-2.16.848l.528.64a2.115,2.115,0,0,1,1.568-.624c.624,0,1.056.312,1.056.784,0,.528-.44.816-1.152.816h-.624v.816h.632c.728,0,1.28.24,1.28.816,0,.528-.5.84-1.1.84A2.583,2.583,0,0,1-35.388,7.5l-.536.68A3.213,3.213,0,0,0-33.5,9.1c1.248,0,2.056-.712,2.056-1.64a1.373,1.373,0,0,0-1.1-1.344,1.365,1.365,0,0,0,.952-1.3C-31.588,3.936-32.4,3.3-33.556,3.3ZM-30.772,9h1.008l.576-1.352h2.648L-25.972,9h1.04L-27.4,3.36h-.912Zm1.944-2.224.96-2.24.968,2.24ZM-23.972,9h2.488c1.28,0,2.08-.608,2.08-1.728,0-1.08-.8-1.7-2.032-1.7H-23V4.288h3.2V3.4h-4.176ZM-23,8.12V6.408h1.472c.728,0,1.136.28,1.136.824,0,.688-.464.888-1.312.888Zm7.376.976a2.869,2.869,0,0,0,2.936-2.9A2.846,2.846,0,0,0-15.6,3.3,2.869,2.869,0,0,0-18.54,6.2,2.846,2.846,0,0,0-15.62,9.1Zm.016-.9a1.919,1.919,0,0,1-1.9-1.992A1.9,1.9,0,0,1-15.62,4.208a1.919,1.919,0,0,1,1.9,1.992A1.9,1.9,0,0,1-15.6,8.192ZM-11.492,9h.984V7.2H-9.4c1.232,0,2.24-.656,2.24-1.912A1.887,1.887,0,0,0-9.284,3.4h-2.208Zm.984-2.688V4.3h1.144c.736,0,1.208.344,1.208,1,0,.6-.464,1.016-1.208,1.016ZM-6.628,9H-5.62l.576-1.352H-2.4L-1.828,9h1.04L-3.252,3.36h-.912Zm1.944-2.224.96-2.24.968,2.24ZM2.572,9H5.164c1.248,0,2.072-.536,2.072-1.536A1.378,1.378,0,0,0,6.124,6.088a1.334,1.334,0,0,0,.8-1.248A1.265,1.265,0,0,0,6.548,3.9a2.022,2.022,0,0,0-1.464-.5H2.572ZM3.54,5.76V4.272H4.956c.632,0,.984.272.984.712,0,.528-.424.776-1.056.776Zm0,2.368V6.592H5.1c.776,0,1.152.28,1.152.752,0,.52-.408.784-1.08.784Zm7.48.968a2.869,2.869,0,0,0,2.936-2.9,2.846,2.846,0,0,0-2.92-2.9A2.869,2.869,0,0,0,8.1,6.2,2.846,2.846,0,0,0,11.02,9.1Zm.016-.9A1.919,1.919,0,0,1,9.132,6.2,1.9,1.9,0,0,1,11.02,4.208a1.919,1.919,0,0,1,1.9,1.992A1.9,1.9,0,0,1,11.036,8.192ZM15.148,9h.984V7.376L17,6.48,18.916,9h1.192L17.676,5.808,20,3.4H18.8L16.132,6.216V3.4h-.984Zm5.8,0h.984V7.2h1.112c1.232,0,2.24-.656,2.24-1.912A1.887,1.887,0,0,0,23.156,3.4H20.948Zm.984-2.688V4.3h1.144c.736,0,1.208.344,1.208,1,0,.6-.464,1.016-1.208,1.016ZM27.26,9.088a1.921,1.921,0,0,0,1.776-1.312L31.22,3.4H30.156L28.62,6.656,26.876,3.4h-1.1l2.336,4.24a1.1,1.1,0,0,1-.88.608,1.318,1.318,0,0,1-.688-.176l-.376.736A2.207,2.207,0,0,0,27.26,9.088ZM32.148,9h.976V4.288h2.792V3.4H32.148ZM-18.86,18.088a1.921,1.921,0,0,0,1.776-1.312L-14.9,12.4h-1.064L-17.5,15.656-19.244,12.4h-1.1l2.336,4.24a1.1,1.1,0,0,1-.88.608,1.318,1.318,0,0,1-.688-.176l-.376.736A2.207,2.207,0,0,0-18.86,18.088ZM-10.684,18H-9.7V12.4h-.984v2.5a2.722,2.722,0,0,1-1.416.44c-.7,0-1.04-.416-1.04-1.12V12.4h-.984v2.072a1.654,1.654,0,0,0,1.848,1.784,3.792,3.792,0,0,0,1.592-.472Zm1.944,0h1.008l.576-1.352h2.648L-3.94,18H-2.9l-2.464-5.64h-.912ZM-6.8,15.776l.96-2.24.968,2.24ZM.66,18.1A2.89,2.89,0,0,0,2.932,17.1l-.632-.64a2.2,2.2,0,0,1-1.608.728A1.894,1.894,0,0,1-1.156,15.2,1.884,1.884,0,0,1,.692,13.208a2.227,2.227,0,0,1,1.568.7l.632-.728A2.919,2.919,0,0,0,.7,12.3a2.834,2.834,0,0,0-2.888,2.9A2.82,2.82,0,0,0,.66,18.1ZM5.34,18h.992V13.312H8.108V12.4H3.564v.912H5.34Zm3.808,0h.984V16.376l.872-.9L12.916,18h1.192l-2.432-3.192L14,12.4H12.8l-2.664,2.816V12.4H9.148Zm5.32,0h1.008l.576-1.352H18.7L19.268,18h1.04l-2.464-5.64h-.912Zm1.944-2.224.96-2.24.968,2.24Z" transform="translate(50.699 46.14)" fill="#fff"/>
    </g>
    <g id="Group_122-7" data-name="Group 122" transform="translate(107.125 72.193)">
      <path id="Path_104-7" data-name="Path 104" d="M16.209,0H54.785A16.209,16.209,0,0,1,70.994,16.209V54.785A16.209,16.209,0,0,1,54.785,70.994H16.209A16.209,16.209,0,0,1,0,54.785V16.209A16.209,16.209,0,0,1,16.209,0Z" transform="translate(50.2 0) rotate(45)" fill="#1db4d4"/>
      <path id="Path_130" data-name="Path 130" d="M-32.308.1a2.869,2.869,0,0,0,2.936-2.9,2.846,2.846,0,0,0-2.92-2.9,2.869,2.869,0,0,0-2.936,2.9A2.846,2.846,0,0,0-32.308.1Zm.016-.9A1.919,1.919,0,0,1-34.2-2.8a1.9,1.9,0,0,1,1.888-1.992A1.919,1.919,0,0,1-30.4-2.8,1.9,1.9,0,0,1-32.292-.808ZM-28.18,0h2.488c1.28,0,2.08-.608,2.08-1.728,0-1.08-.8-1.7-2.032-1.7H-27.2V-4.712H-24V-5.6H-28.18Zm.976-.88V-2.592h1.472c.728,0,1.136.28,1.136.824,0,.688-.464.888-1.312.888Zm5.672.968a1.921,1.921,0,0,0,1.776-1.312L-17.572-5.6h-1.064l-1.536,3.256L-21.916-5.6h-1.1l2.336,4.24a1.1,1.1,0,0,1-.88.608,1.318,1.318,0,0,1-.688-.176l-.376.736A2.207,2.207,0,0,0-21.532.088ZM-14.044.1A2.89,2.89,0,0,0-11.772-.9l-.632-.64a2.2,2.2,0,0,1-1.608.728A1.894,1.894,0,0,1-15.86-2.8a1.884,1.884,0,0,1,1.848-1.992,2.227,2.227,0,0,1,1.568.7l.632-.728A2.919,2.919,0,0,0-14-5.7a2.834,2.834,0,0,0-2.888,2.9A2.82,2.82,0,0,0-14.044.1Zm4.68-.1h.992V-4.688H-6.6V-5.6H-11.14v.912h1.776Zm3.808,0h.984V-1.8H-3.46c1.232,0,2.24-.656,2.24-1.912A1.887,1.887,0,0,0-3.348-5.6H-5.556Zm.984-2.688V-4.7h1.144c.736,0,1.208.344,1.208,1,0,.6-.464,1.016-1.208,1.016ZM2.46.1A2.869,2.869,0,0,0,5.4-2.8a2.846,2.846,0,0,0-2.92-2.9A2.869,2.869,0,0,0-.46-2.8,2.846,2.846,0,0,0,2.46.1Zm.016-.9A1.919,1.919,0,0,1,.572-2.8,1.9,1.9,0,0,1,2.46-4.792,1.919,1.919,0,0,1,4.364-2.8,1.9,1.9,0,0,1,2.476-.808ZM8.98-6.04a1.221,1.221,0,0,0,1.256-1.12l-.592-.112a.661.661,0,0,1-.664.544.655.655,0,0,1-.664-.544l-.6.112A1.233,1.233,0,0,0,8.98-6.04ZM6.588,0h.928L10.34-4.08V0h.968V-5.6h-.92L7.556-1.512V-5.6H6.588Zm8.768.1A2.89,2.89,0,0,0,17.628-.9L17-1.536a2.2,2.2,0,0,1-1.608.728A1.894,1.894,0,0,1,13.54-2.8a1.884,1.884,0,0,1,1.848-1.992,2.227,2.227,0,0,1,1.568.7l.632-.728A2.919,2.919,0,0,0,15.4-5.7a2.834,2.834,0,0,0-2.888,2.9A2.82,2.82,0,0,0,15.356.1Zm4.68-.1h.992V-4.688H22.8V-5.6H18.26v.912h1.776Zm3.808,0h2.592c1.248,0,2.072-.536,2.072-1.536A1.378,1.378,0,0,0,27.4-2.912a1.334,1.334,0,0,0,.8-1.248A1.265,1.265,0,0,0,27.82-5.1a2.022,2.022,0,0,0-1.464-.5H23.844Zm.968-3.24V-4.728h1.416c.632,0,.984.272.984.712,0,.528-.424.776-1.056.776Zm0,2.368V-2.408h1.56c.776,0,1.152.28,1.152.752,0,.52-.408.784-1.08.784ZM32.292.1a2.869,2.869,0,0,0,2.936-2.9,2.846,2.846,0,0,0-2.92-2.9,2.869,2.869,0,0,0-2.936,2.9A2.846,2.846,0,0,0,32.292.1Zm.016-.9A1.919,1.919,0,0,1,30.4-2.8a1.9,1.9,0,0,1,1.888-1.992A1.919,1.919,0,0,1,34.2-2.8,1.9,1.9,0,0,1,32.308-.808ZM-25.644,9h.984V4.288h2.6V9h.984V3.4h-4.568Zm6.008,0h.984V7.2h1.112c1.232,0,2.24-.656,2.24-1.912A1.887,1.887,0,0,0-17.428,3.4h-2.208Zm.984-2.688V4.3h1.144c.736,0,1.208.344,1.208,1,0,.6-.464,1.016-1.208,1.016ZM-14.292,9h.928l2.824-4.08V9h.968V3.4h-.92l-2.832,4.088V3.4h-.968Zm5.528,1.2H-7.9L-7.8,9H-3.86v1.2h.816l.136-2.08h-.7V3.4h-3.9v.792A8.386,8.386,0,0,1-8.22,8.12h-.544Zm1.592-2.08a7.432,7.432,0,0,0,.608-3.192v-.64h1.976V8.12ZM.644,9.1A2.869,2.869,0,0,0,3.58,6.2,2.846,2.846,0,0,0,.66,3.3,2.869,2.869,0,0,0-2.276,6.2,2.846,2.846,0,0,0,.644,9.1Zm.016-.9A1.919,1.919,0,0,1-1.244,6.2,1.9,1.9,0,0,1,.644,4.208,1.919,1.919,0,0,1,2.548,6.2,1.9,1.9,0,0,1,.66,8.192ZM4.772,9H5.74V5L7.492,7.624h.032l1.768-2.64V9h.984V3.4H9.228l-1.7,2.648L5.82,3.4H4.772Zm9.616.1a2.869,2.869,0,0,0,2.936-2.9,2.928,2.928,0,0,0-5.856,0A2.846,2.846,0,0,0,14.388,9.1Zm.016-.9A1.919,1.919,0,0,1,12.5,6.2a1.9,1.9,0,0,1,1.888-1.992,1.919,1.919,0,0,1,1.9,1.992A1.9,1.9,0,0,1,14.4,8.192Zm6.5-5.232a1.221,1.221,0,0,0,1.256-1.12l-.592-.112a.677.677,0,0,1-1.328,0l-.6.112A1.233,1.233,0,0,0,20.908,2.96ZM18.516,9h.928l2.824-4.08V9h.968V3.4h-.92L19.484,7.488V3.4h-.968Zm-46.152,9h.992V13.312h1.776V12.4h-4.544v.912h1.776Zm3.808,0h4.192v-.88h-3.208v-1.5h2.808v-.88h-2.808V13.28h3.168V12.4h-4.152Zm5.36,0h.984V16.2h1.112c1.232,0,2.24-.656,2.24-1.912A1.887,1.887,0,0,0-16.26,12.4h-2.208Zm.984-2.688V13.3h1.144c.736,0,1.208.344,1.208,1,0,.6-.464,1.016-1.208,1.016ZM-13.124,18h.984V16.2h1.112c1.232,0,2.24-.656,2.24-1.912A1.887,1.887,0,0,0-10.916,12.4h-2.208Zm.984-2.688V13.3H-11c.736,0,1.208.344,1.208,1,0,.6-.464,1.016-1.208,1.016ZM-7.78,18h.928l2.824-4.08V18h.968V12.4h-.92l-2.832,4.088V12.4H-7.78Zm7.544,0H.756V13.312H2.532V12.4H-2.012v.912H-.236Zm6.48.1A2.9,2.9,0,1,0,6.26,12.3,2.9,2.9,0,1,0,6.244,18.1Zm.016-.9a1.919,1.919,0,0,1-1.9-1.992,1.9,1.9,0,0,1,1.888-1.992,1.919,1.919,0,0,1,1.9,1.992A1.9,1.9,0,0,1,6.26,17.192ZM10.372,18h.984V16.2h1.112c1.232,0,2.24-.656,2.24-1.912A1.887,1.887,0,0,0,12.58,12.4H10.372Zm.984-2.688V13.3H12.5c.736,0,1.208.344,1.208,1,0,.6-.464,1.016-1.208,1.016ZM15.716,18h.928l2.824-4.08V18h.968V12.4h-.92l-2.832,4.088V12.4h-.968Zm6.168,0h.928l2.824-4.08V18H26.6V12.4h-.92l-2.832,4.088V12.4h-.968ZM-18.86,27.088a1.921,1.921,0,0,0,1.776-1.312L-14.9,21.4h-1.064L-17.5,24.656-19.244,21.4h-1.1l2.336,4.24a1.1,1.1,0,0,1-.88.608,1.318,1.318,0,0,1-.688-.176l-.376.736A2.207,2.207,0,0,0-18.86,27.088ZM-10.684,27H-9.7V21.4h-.984v2.5a2.722,2.722,0,0,1-1.416.44c-.7,0-1.04-.416-1.04-1.12V21.4h-.984v2.072a1.654,1.654,0,0,0,1.848,1.784,3.792,3.792,0,0,0,1.592-.472Zm1.944,0h1.008l.576-1.352h2.648L-3.94,27H-2.9l-2.464-5.64h-.912ZM-6.8,24.776l.96-2.24.968,2.24ZM.66,27.1A2.89,2.89,0,0,0,2.932,26.1l-.632-.64a2.2,2.2,0,0,1-1.608.728A1.894,1.894,0,0,1-1.156,24.2,1.884,1.884,0,0,1,.692,22.208a2.227,2.227,0,0,1,1.568.7l.632-.728A2.919,2.919,0,0,0,.7,21.3a2.834,2.834,0,0,0-2.888,2.9A2.82,2.82,0,0,0,.66,27.1ZM5.34,27h.992V22.312H8.108V21.4H3.564v.912H5.34Zm3.808,0h.984V25.376l.872-.9L12.916,27h1.192l-2.432-3.192L14,21.4H12.8l-2.664,2.816V21.4H9.148Zm5.32,0h1.008l.576-1.352H18.7L19.268,27h1.04l-2.464-5.64h-.912Zm1.944-2.224.96-2.24.968,2.24Z" transform="translate(50.341 43.917)" fill="#fff"/>
    </g>
    <g id="Group_122-8" data-name="Group 122" transform="translate(0 356.354)">
      <path id="Path_104-8" data-name="Path 104" d="M16.209,0H54.785A16.209,16.209,0,0,1,70.994,16.209V54.785A16.209,16.209,0,0,1,54.785,70.994H16.209A16.209,16.209,0,0,1,0,54.785V16.209A16.209,16.209,0,0,1,16.209,0Z" transform="translate(50.2 0) rotate(45)" fill="#1db4d4"/>
      <path id="Path_123" data-name="Path 123" d="M-19.712,0h.984V-4.712h2.6V0h.984V-5.6h-4.568Zm8.68.1A2.869,2.869,0,0,0-8.1-2.8a2.846,2.846,0,0,0-2.92-2.9,2.869,2.869,0,0,0-2.936,2.9A2.846,2.846,0,0,0-11.032.1Zm.016-.9A1.919,1.919,0,0,1-12.92-2.8a1.9,1.9,0,0,1,1.888-1.992A1.919,1.919,0,0,1-9.128-2.8,1.9,1.9,0,0,1-11.016-.808ZM-6.9,0h.968V-4l1.752,2.624h.032l1.768-2.64V0H-1.4V-5.6H-2.448l-1.7,2.648L-5.856-5.6H-6.9ZM2.712.1A2.869,2.869,0,0,0,5.648-2.8a2.846,2.846,0,0,0-2.92-2.9A2.869,2.869,0,0,0-.208-2.8,2.846,2.846,0,0,0,2.712.1Zm.016-.9A1.919,1.919,0,0,1,.824-2.8,1.9,1.9,0,0,1,2.712-4.792,1.919,1.919,0,0,1,4.616-2.8,1.9,1.9,0,0,1,2.728-.808ZM13.928,1.2h.808l.136-2.088h-.688V-5.6H13.2V-.888H11V-5.6h-.976V-.888h-2.2V-5.6H6.84V0h7.088ZM15.752,0h2.256c1.3,0,2.112-.7,2.112-1.832s-.848-1.752-2.1-1.752H16.728V-5.6h-.976Zm.976-.88V-2.728h1.248c.744,0,1.168.312,1.168.888,0,.632-.424.96-1.152.96ZM-24.976,9.1A2.89,2.89,0,0,0-22.7,8.1l-.632-.64a2.2,2.2,0,0,1-1.608.728A1.894,1.894,0,0,1-26.792,6.2a1.884,1.884,0,0,1,1.848-1.992,2.227,2.227,0,0,1,1.568.7l.632-.728A2.919,2.919,0,0,0-24.936,3.3a2.834,2.834,0,0,0-2.888,2.9A2.82,2.82,0,0,0-24.976,9.1Zm5.7-.1h.928l2.824-4.08V9h.968V3.4h-.92L-18.3,7.488V3.4h-.968ZM-13.1,9h.984V4.288h2.6V9h.984V3.4H-13.1Zm8.68.1A2.869,2.869,0,0,0-1.488,6.2a2.846,2.846,0,0,0-2.92-2.9A2.869,2.869,0,0,0-7.344,6.2,2.846,2.846,0,0,0-4.424,9.1Zm.016-.9A1.919,1.919,0,0,1-6.312,6.2,1.9,1.9,0,0,1-4.424,4.208,1.919,1.919,0,0,1-2.52,6.2,1.9,1.9,0,0,1-4.408,8.192ZM1.08,9h.992V4.312H3.848V3.4H-.7v.912H1.08ZM4.888,9H9.08V8.12H5.872v-1.5H8.68v-.88H5.872V4.28H9.04V3.4H4.888Zm5.36,0h.984V7.376l.872-.9L14.016,9h1.192L12.776,5.808,15.1,3.4H13.9L11.232,6.216V3.4h-.984Zm8.472.1a2.869,2.869,0,0,0,2.936-2.9,2.928,2.928,0,0,0-5.856,0A2.846,2.846,0,0,0,18.72,9.1Zm.016-.9a1.919,1.919,0,0,1-1.9-1.992A1.9,1.9,0,0,1,18.72,4.208a1.919,1.919,0,0,1,1.9,1.992A1.9,1.9,0,0,1,18.736,8.192Zm6.5-5.232A1.221,1.221,0,0,0,26.5,1.84L25.9,1.728a.677.677,0,0,1-1.328,0l-.6.112A1.233,1.233,0,0,0,25.24,2.96ZM22.848,9h.928L26.6,4.92V9h.968V3.4h-.92L23.816,7.488V3.4h-.968Zm-50.26,9h.928l2.824-4.08V18h.968V12.4h-.92l-2.832,4.088V12.4h-.968Zm8.568,0h.984V16.376l.872-.9L-15.076,18h1.192l-2.432-3.192,2.328-2.408H-15.2l-2.664,2.816V12.4h-.984Zm5.8,0h.984V16.2h1.112c1.232,0,2.24-.656,2.24-1.912A1.887,1.887,0,0,0-10.836,12.4h-2.208Zm.984-2.688V13.3h1.144c.736,0,1.208.344,1.208,1,0,.6-.464,1.016-1.208,1.016ZM-7.7,18h4.192v-.88H-6.716v-1.5h2.808v-.88H-6.716V13.28h3.168V12.4H-7.7Zm4.72,1.2h.864l.1-1.2H1.924v1.2H2.74l.136-2.08h-.7V12.4h-3.9v.792a8.386,8.386,0,0,1-.712,3.928H-2.98Zm1.592-2.08A7.432,7.432,0,0,0-.78,13.928v-.64H1.2V17.12ZM3.756,18h.928l2.824-4.08V18h.968V12.4h-.92L4.724,16.488V12.4H3.756ZM11.3,18h.992V13.312h1.776V12.4H9.524v.912H11.3Zm6.48.1a2.9,2.9,0,1,0-2.92-2.9A2.869,2.869,0,0,0,17.78,18.1Zm.016-.9a1.919,1.919,0,0,1-1.9-1.992,1.9,1.9,0,0,1,1.888-1.992,1.919,1.919,0,0,1,1.9,1.992A1.9,1.9,0,0,1,17.8,17.192ZM21.908,18h.968V14l1.752,2.624h.032l1.768-2.64V18h.984V12.4H26.364l-1.7,2.648-1.7-2.648H21.908Z" transform="translate(50.297 44.14)" fill="#fff"/>
    </g>
    <g id="Group_122-9" data-name="Group 122" transform="translate(107.125 217.354)">
      <path id="Path_104-9" data-name="Path 104" d="M16.209,0H54.785A16.209,16.209,0,0,1,70.994,16.209V54.785A16.209,16.209,0,0,1,54.785,70.994H16.209A16.209,16.209,0,0,1,0,54.785V16.209A16.209,16.209,0,0,1,16.209,0Z" transform="translate(50.2 0) rotate(45)" fill="#1db4d4"/>
      <path id="Path_127" data-name="Path 127" d="M-16.212.088a1.921,1.921,0,0,0,1.776-1.312L-12.252-5.6h-1.064l-1.536,3.256L-16.6-5.6h-1.1l2.336,4.24a1.1,1.1,0,0,1-.88.608,1.318,1.318,0,0,1-.688-.176l-.376.736A2.207,2.207,0,0,0-16.212.088ZM-11.324,0h2.488c1.28,0,2.08-.608,2.08-1.728,0-1.08-.8-1.7-2.032-1.7h-1.56V-4.712h3.2V-5.6h-4.176Zm.976-.88V-2.592h1.472c.728,0,1.136.28,1.136.824,0,.688-.464.888-1.312.888ZM-2.972.1A2.869,2.869,0,0,0-.036-2.8a2.846,2.846,0,0,0-2.92-2.9A2.869,2.869,0,0,0-5.892-2.8,2.846,2.846,0,0,0-2.972.1Zm.016-.9A1.919,1.919,0,0,1-4.86-2.8,1.9,1.9,0,0,1-2.972-4.792,1.919,1.919,0,0,1-1.068-2.8,1.9,1.9,0,0,1-2.956-.808ZM1.156,0H2.14V-1.8H3.252c1.232,0,2.24-.656,2.24-1.912A1.887,1.887,0,0,0,3.364-5.6H1.156ZM2.14-2.688V-4.7H3.284c.736,0,1.208.344,1.208,1,0,.6-.464,1.016-1.208,1.016ZM6.5,0h.984V-1.624l.872-.9L10.268,0H11.46L9.028-3.192,11.356-5.6H10.148L7.484-2.784V-5.6H6.5Zm5.32,0h1.008L13.4-1.352h2.648L16.62,0h1.04L15.2-5.64h-.912Zm1.944-2.224.96-2.24.968,2.24ZM-38.832,9h.968V5l1.752,2.624h.032l1.768-2.64V9h.984V3.4h-1.048l-1.7,2.648-1.7-2.648h-1.048Zm7.912.088a1.921,1.921,0,0,0,1.776-1.312L-26.96,3.4h-1.064L-29.56,6.656-31.3,3.4h-1.1l2.336,4.24a1.1,1.1,0,0,1-.88.608,1.318,1.318,0,0,1-.688-.176l-.376.736A2.207,2.207,0,0,0-30.92,9.088Zm7.488.008A2.89,2.89,0,0,0-21.16,8.1l-.632-.64a2.2,2.2,0,0,1-1.608.728A1.894,1.894,0,0,1-25.248,6.2,1.884,1.884,0,0,1-23.4,4.208a2.227,2.227,0,0,1,1.568.7l.632-.728A2.919,2.919,0,0,0-23.392,3.3,2.834,2.834,0,0,0-26.28,6.2,2.82,2.82,0,0,0-23.432,9.1Zm5.976,0A2.869,2.869,0,0,0-14.52,6.2a2.846,2.846,0,0,0-2.92-2.9,2.869,2.869,0,0,0-2.936,2.9A2.846,2.846,0,0,0-17.456,9.1Zm.016-.9a1.919,1.919,0,0,1-1.9-1.992,1.9,1.9,0,0,1,1.888-1.992,1.919,1.919,0,0,1,1.9,1.992A1.9,1.9,0,0,1-17.44,8.192ZM-13.328,9h.984V7.2h1.112c1.232,0,2.24-.656,2.24-1.912A1.887,1.887,0,0,0-11.12,3.4h-2.208Zm.984-2.688V4.3H-11.2c.736,0,1.208.344,1.208,1,0,.6-.464,1.016-1.208,1.016ZM-8.464,9h1.008l.576-1.352h2.648L-3.664,9h1.04L-5.088,3.36H-6ZM-6.52,6.776l.96-2.24.968,2.24ZM.736,9h.928L4.488,4.92V9h.968V3.4h-.92L1.7,7.488V3.4H.736ZM9.3,9H11.9c1.248,0,2.072-.536,2.072-1.536a1.378,1.378,0,0,0-1.112-1.376,1.334,1.334,0,0,0,.8-1.248A1.265,1.265,0,0,0,13.28,3.9a2.022,2.022,0,0,0-1.464-.5H9.3Zm.968-3.24V4.272h1.416c.632,0,.984.272.984.712,0,.528-.424.776-1.056.776Zm0,2.368V6.592h1.56c.776,0,1.152.28,1.152.752,0,.52-.408.784-1.08.784ZM15.08,9h2.256c1.3,0,2.112-.7,2.112-1.832s-.848-1.752-2.1-1.752H16.056V3.4H15.08Zm.976-.88V6.272H17.3c.744,0,1.168.312,1.168.888,0,.632-.424.96-1.152.96ZM20.112,9h.976V3.4h-.976Zm2.416,0H25.12c1.248,0,2.072-.536,2.072-1.536A1.378,1.378,0,0,0,26.08,6.088a1.334,1.334,0,0,0,.8-1.248A1.265,1.265,0,0,0,26.5,3.9a2.022,2.022,0,0,0-1.464-.5H22.528ZM23.5,5.76V4.272h1.416c.632,0,.984.272.984.712,0,.528-.424.776-1.056.776Zm0,2.368V6.592h1.56c.776,0,1.152.28,1.152.752,0,.52-.408.784-1.08.784Zm7.48.968a2.869,2.869,0,0,0,2.936-2.9,2.928,2.928,0,0,0-5.856,0A2.846,2.846,0,0,0,30.976,9.1Zm.016-.9a1.919,1.919,0,0,1-1.9-1.992,1.9,1.9,0,0,1,1.888-1.992A1.919,1.919,0,0,1,32.88,6.2,1.9,1.9,0,0,1,30.992,8.192ZM37.008,3.3a2.9,2.9,0,0,0-2.16.848l.528.64a2.115,2.115,0,0,1,1.568-.624c.624,0,1.056.312,1.056.784,0,.528-.44.816-1.152.816h-.624v.816h.632c.728,0,1.28.24,1.28.816,0,.528-.5.84-1.1.84A2.583,2.583,0,0,1,35.176,7.5l-.536.68a3.213,3.213,0,0,0,2.424.92c1.248,0,2.056-.712,2.056-1.64a1.373,1.373,0,0,0-1.1-1.344,1.365,1.365,0,0,0,.952-1.3C38.976,3.936,38.168,3.3,37.008,3.3ZM-33.36,18h2.592c1.248,0,2.072-.536,2.072-1.536a1.378,1.378,0,0,0-1.112-1.376,1.334,1.334,0,0,0,.8-1.248,1.265,1.265,0,0,0-.376-.944,2.022,2.022,0,0,0-1.464-.5H-33.36Zm.968-3.24V13.272h1.416c.632,0,.984.272.984.712,0,.528-.424.776-1.056.776Zm0,2.368V15.592h1.56c.776,0,1.152.28,1.152.752,0,.52-.408.784-1.08.784Zm7.408.968a2.89,2.89,0,0,0,2.272-.992l-.632-.64a2.2,2.2,0,0,1-1.608.728A1.894,1.894,0,0,1-26.8,15.2a1.884,1.884,0,0,1,1.848-1.992,2.227,2.227,0,0,1,1.568.7l.632-.728a2.919,2.919,0,0,0-2.192-.872,2.834,2.834,0,0,0-2.888,2.9A2.82,2.82,0,0,0-24.984,18.1Zm3.3-.1h4.192v-.88H-20.7v-1.5h2.808v-.88H-20.7V13.28h3.168V12.4H-21.68Zm5.36,0h.976V13.288h2.792V12.4H-16.32Zm7.424.1A2.869,2.869,0,0,0-5.96,15.2a2.846,2.846,0,0,0-2.92-2.9,2.869,2.869,0,0,0-2.936,2.9A2.846,2.846,0,0,0-8.9,18.1Zm.016-.9a1.919,1.919,0,0,1-1.9-1.992A1.9,1.9,0,0,1-8.9,13.208a1.919,1.919,0,0,1,1.9,1.992A1.9,1.9,0,0,1-8.88,17.192ZM-2.368,18H-1.4V14L.352,16.624H.384l1.768-2.64V18h.984V12.4H2.088l-1.7,2.648L-1.32,12.4H-2.368Zm7.912.088A1.921,1.921,0,0,0,7.32,16.776L9.5,12.4H8.44L6.9,15.656,5.16,12.4h-1.1l2.336,4.24a1.1,1.1,0,0,1-.88.608,1.318,1.318,0,0,1-.688-.176l-.376.736A2.207,2.207,0,0,0,5.544,18.088Zm7.488.008A2.89,2.89,0,0,0,15.3,17.1l-.632-.64a2.2,2.2,0,0,1-1.608.728A1.894,1.894,0,0,1,11.216,15.2a1.884,1.884,0,0,1,1.848-1.992,2.227,2.227,0,0,1,1.568.7l.632-.728a2.919,2.919,0,0,0-2.192-.872,2.9,2.9,0,0,0-.04,5.792Zm5.976,0a2.9,2.9,0,1,0-2.92-2.9A2.869,2.869,0,0,0,19.008,18.1Zm.016-.9a1.919,1.919,0,0,1-1.9-1.992,1.9,1.9,0,0,1,1.888-1.992,1.919,1.919,0,0,1,1.9,1.992A1.9,1.9,0,0,1,19.024,17.192ZM23.136,18h.984V16.2h1.112c1.232,0,2.24-.656,2.24-1.912A1.887,1.887,0,0,0,25.344,12.4H23.136Zm.984-2.688V13.3h1.144c.736,0,1.208.344,1.208,1,0,.6-.464,1.016-1.208,1.016ZM28,18h1.008l.576-1.352h2.648L32.8,18h1.04l-2.464-5.64h-.912Zm1.944-2.224.96-2.24.968,2.24Z" transform="translate(50.341 44.14)" fill="#fff"/>
    </g>
    <g id="Group_122-10" data-name="Group 122" transform="translate(214.249 356.354)">
      <path id="Path_104-10" data-name="Path 104" d="M16.209,0H54.785A16.209,16.209,0,0,1,70.994,16.209V54.785A16.209,16.209,0,0,1,54.785,70.994H16.209A16.209,16.209,0,0,1,0,54.785V16.209A16.209,16.209,0,0,1,16.209,0Z" transform="translate(50.2 0) rotate(45)" fill="#1db4d4"/>
      <path id="Path_124" data-name="Path 124" d="M-25.656,1.2h.864l.1-1.2h3.944V1.2h.816L-19.8-.88h-.7V-5.6h-3.9v.792A8.386,8.386,0,0,1-25.112-.88h-.544Zm1.592-2.08a7.432,7.432,0,0,0,.608-3.192v-.64h1.976V-.88ZM-18.92,0h4.192V-.88h-3.208v-1.5h2.808v-.88h-2.808V-4.72h3.168V-5.6H-18.92Zm5.36,0h.968V-4l1.752,2.624h.032l1.768-2.64V0h.984V-5.6H-9.1l-1.7,2.648-1.7-2.648H-13.56Zm9.616.1A2.869,2.869,0,0,0-1.008-2.8a2.846,2.846,0,0,0-2.92-2.9A2.869,2.869,0,0,0-6.864-2.8,2.846,2.846,0,0,0-3.944.1Zm.016-.9A1.919,1.919,0,0,1-5.832-2.8,1.9,1.9,0,0,1-3.944-4.792,1.919,1.919,0,0,1-2.04-2.8,1.9,1.9,0,0,1-3.928-.808ZM.184,0h.984V-2.36H3.84V0h.984V-5.6H3.84v2.328H1.168V-5.6H.184ZM7.64,0h.992V-4.688h1.776V-5.6H5.864v.912H7.64Zm3.328,0h1.008l.576-1.352H15.2L15.768,0h1.04L14.344-5.64h-.912Zm1.944-2.224.96-2.24.968,2.24ZM21.88,0V-1.488l.88-1L24.432,0h1.184L23.4-3.216,25.5-5.6H24.328L21.88-2.688V-5.6H20.9v2.912L18.456-5.6H17.28l2.1,2.384L17.168,0h1.184l1.672-2.488.88,1V0ZM-17.232,9.1A2.89,2.89,0,0,0-14.96,8.1l-.632-.64a2.2,2.2,0,0,1-1.608.728A1.894,1.894,0,0,1-19.048,6.2,1.884,1.884,0,0,1-17.2,4.208a2.227,2.227,0,0,1,1.568.7L-15,4.176A2.919,2.919,0,0,0-17.192,3.3,2.834,2.834,0,0,0-20.08,6.2,2.82,2.82,0,0,0-17.232,9.1Zm4.68-.1h.992V4.312h1.776V3.4h-4.544v.912h1.776Zm3.328,0h1.008l.576-1.352h2.648L-4.424,9h1.04L-5.848,3.36H-6.76ZM-7.28,6.776l.96-2.24.968,2.24ZM-2.424,9h.984V7.2H-.328c1.232,0,2.24-.656,2.24-1.912A1.887,1.887,0,0,0-.216,3.4H-2.424Zm.984-2.688V4.3H-.3C.44,4.3.912,4.64.912,5.3.912,5.9.448,6.312-.3,6.312ZM5.592,9.1A2.869,2.869,0,0,0,8.528,6.2a2.846,2.846,0,0,0-2.92-2.9A2.869,2.869,0,0,0,2.672,6.2,2.846,2.846,0,0,0,5.592,9.1Zm.016-.9A1.919,1.919,0,0,1,3.7,6.2,1.9,1.9,0,0,1,5.592,4.208,1.919,1.919,0,0,1,7.5,6.2,1.9,1.9,0,0,1,5.608,8.192ZM9.72,9H10.7V4.288h2.792V3.4H9.72Zm7.424.1A2.869,2.869,0,0,0,20.08,6.2a2.928,2.928,0,0,0-5.856,0A2.846,2.846,0,0,0,17.144,9.1Zm.016-.9a1.919,1.919,0,0,1-1.9-1.992,1.9,1.9,0,0,1,1.888-1.992,1.919,1.919,0,0,1,1.9,1.992A1.9,1.9,0,0,1,17.16,8.192Zm-37.148,9.9a2.89,2.89,0,0,0,2.272-.992l-.632-.64a2.2,2.2,0,0,1-1.608.728A1.894,1.894,0,0,1-21.8,15.2a1.884,1.884,0,0,1,1.848-1.992,2.227,2.227,0,0,1,1.568.7l.632-.728a2.919,2.919,0,0,0-2.192-.872,2.834,2.834,0,0,0-2.888,2.9A2.82,2.82,0,0,0-19.988,18.1Zm4.68-.1h.992V13.312h1.776V12.4h-4.544v.912h1.776Zm3.808,0h.984V16.2H-9.4c1.232,0,2.24-.656,2.24-1.912A1.887,1.887,0,0,0-9.292,12.4H-11.5Zm.984-2.688V13.3h1.144c.736,0,1.208.344,1.208,1,0,.6-.464,1.016-1.208,1.016ZM-3.484,18.1A2.869,2.869,0,0,0-.548,15.2a2.846,2.846,0,0,0-2.92-2.9A2.869,2.869,0,0,0-6.4,15.2,2.846,2.846,0,0,0-3.484,18.1Zm.016-.9a1.919,1.919,0,0,1-1.9-1.992,1.9,1.9,0,0,1,1.888-1.992A1.919,1.919,0,0,1-1.58,15.2,1.9,1.9,0,0,1-3.468,17.192ZM.644,18H4.836v-.88H1.628v-1.5H4.436v-.88H1.628V13.28H4.8V12.4H.644ZM6,18h.984V15.64H9.66V18h.984V12.4H9.66v2.328H6.988V12.4H6Zm6.08,0h.928l2.824-4.08V18H16.8V12.4h-.92l-2.832,4.088V12.4h-.968Zm5.736,0h1.16l1.392-1.936h1.24V18h.976V12.4H20.1c-1.3,0-2.088.7-2.088,1.784A1.686,1.686,0,0,0,19.348,15.9Zm2.344-2.792c-.7,0-1.16-.376-1.16-.96,0-.608.44-.96,1.176-.96h1.432v1.92Z" transform="translate(50.626 46.022)" fill="#fff"/>
    </g>
    <g id="Group_122-11" data-name="Group 122" transform="translate(107.125 356.694)">
      <path id="Path_104-11" data-name="Path 104" d="M16.209,0H54.785A16.209,16.209,0,0,1,70.994,16.209V54.785A16.209,16.209,0,0,1,54.785,70.994H16.209A16.209,16.209,0,0,1,0,54.785V16.209A16.209,16.209,0,0,1,16.209,0Z" transform="translate(50.2 0) rotate(45)" fill="#1db4d4"/>
      <path id="Path_122" data-name="Path 122" d="M-31.248,0h.928L-27.5-4.08V0h.968V-5.6h-.92L-30.28-1.512V-5.6h-.968Zm6.168,0h.984V-2.36h2.672V0h.984V-5.6h-.984v2.328H-24.1V-5.6h-.984Zm7.456,0h.992V-4.688h1.776V-5.6H-19.4v.912h1.776Zm3.808,0h4.192V-.88h-3.208v-1.5h2.808v-.88h-2.808V-4.72h3.168V-5.6h-4.152Zm5.36,0h.984V-1.8H-6.36c1.232,0,2.24-.656,2.24-1.912A1.887,1.887,0,0,0-6.248-5.6H-8.456Zm.984-2.688V-4.7h1.144c.736,0,1.208.344,1.208,1,0,.6-.464,1.016-1.208,1.016ZM-3.112,0H-.856C.44,0,1.256-.7,1.256-1.832S.408-3.584-.848-3.584H-2.136V-5.6h-.976Zm.976-.88V-2.728H-.888c.744,0,1.168.312,1.168.888,0,.632-.424.96-1.152.96ZM2.288,0H6.48V-.88H3.272v-1.5H6.08v-.88H3.272V-4.72H6.44V-5.6H2.288Zm5.36,0h.984V-1.8H9.744c1.232,0,2.24-.656,2.24-1.912A1.887,1.887,0,0,0,9.856-5.6H7.648Zm.984-2.688V-4.7H9.776c.736,0,1.208.344,1.208,1,0,.6-.464,1.016-1.208,1.016ZM12.992,0h.984V-2.36h2.672V0h.984V-5.6h-.984v2.328H13.976V-5.6h-.984Zm6.08,0h2.256c1.3,0,2.112-.7,2.112-1.832s-.848-1.752-2.1-1.752H20.048V-5.6h-.976Zm.976-.88V-2.728H21.3c.744,0,1.168.312,1.168.888,0,.632-.424.96-1.152.96ZM24.1,0h.976V-5.6H24.1Zm4.808-6.04a1.221,1.221,0,0,0,1.256-1.12l-.592-.112a.661.661,0,0,1-.664.544.655.655,0,0,1-.664-.544l-.6.112A1.233,1.233,0,0,0,28.912-6.04ZM26.52,0h.928l2.824-4.08V0h.968V-5.6h-.92L27.488-1.512V-5.6H26.52ZM-17.92,10.2h.864l.1-1.2h3.944v1.2h.816l.136-2.08h-.7V3.4h-3.9v.792a8.386,8.386,0,0,1-.712,3.928h-.544Zm1.592-2.08a7.432,7.432,0,0,0,.608-3.192v-.64h1.976V8.12Zm5.144.88h.928l2.824-4.08V9h.968V3.4h-.92l-2.832,4.088V3.4h-.968Zm8.072-5.7a2.9,2.9,0,0,0-2.16.848l.528.64a2.115,2.115,0,0,1,1.568-.624c.624,0,1.056.312,1.056.784,0,.528-.44.816-1.152.816H-3.9v.816h.632c.728,0,1.28.24,1.28.816,0,.528-.5.84-1.1.84A2.583,2.583,0,0,1-4.944,7.5l-.536.68a3.213,3.213,0,0,0,2.424.92C-1.808,9.1-1,8.384-1,7.456A1.373,1.373,0,0,0-2.1,6.112a1.365,1.365,0,0,0,.952-1.3C-1.144,3.936-1.952,3.3-3.112,3.3ZM-.328,9H.68l.576-1.352H3.9L4.472,9h1.04L3.048,3.36H2.136ZM1.616,6.776l.96-2.24.968,2.24ZM8.864,2.96A1.221,1.221,0,0,0,10.12,1.84l-.592-.112a.677.677,0,0,1-1.328,0l-.6.112A1.233,1.233,0,0,0,8.864,2.96ZM6.472,9H7.4l2.824-4.08V9h.968V3.4h-.92L7.44,7.488V3.4H6.472ZM12.64,9h.984V6.64H16.3V9h.984V3.4H16.3V5.728H13.624V3.4H12.64Z" transform="translate(50.341 49.022)" fill="#fff"/>
    </g>
  </g>
</svg>
