<svg id="Group_106" data-name="Group 106" xmlns="http://www.w3.org/2000/svg" width="140" height="140" viewBox="0 0 140 140">
  <path id="Path_92" data-name="Path 92" d="M22.6,0h53.79a22.6,22.6,0,0,1,22.6,22.6v53.79a22.6,22.6,0,0,1-22.6,22.6H22.6A22.6,22.6,0,0,1,0,76.392V22.6A22.6,22.6,0,0,1,22.6,0Z" transform="translate(70) rotate(45)" fill="#1db4d4"/>
  <path id="Path_35" data-name="Path 35" d="M58.828,10.131H45.586V1.172A1.172,1.172,0,0,0,44.414,0H1.172A1.172,1.172,0,0,0,0,1.172V41.695a1.172,1.172,0,0,0,1.172,1.172H58.828A1.172,1.172,0,0,0,60,41.695V11.3a1.172,1.172,0,0,0-1.172-1.172ZM16.758,30.392V22.605H43.242v7.787Zm12.07-17.918v7.787H2.344V12.475ZM2.344,22.605h12.07v7.787H2.344Zm43.242,0h12.07v7.787H45.586Zm12.07-2.344H31.172v-2.6h16.69a1.172,1.172,0,1,0,0-2.344H31.172v-2.84H57.656ZM43.242,10.131H16.758V2.344H43.242ZM2.344,2.344h12.07v7.787H2.344Zm0,35.457h16.64a1.172,1.172,0,0,0,0-2.344H2.344V32.736H28.828v7.787H2.344Zm55.313,2.722H31.172V32.736H57.656Zm0,0" transform="translate(40.332 48.116)" fill="#fff"/>
</svg>
