<svg xmlns="http://www.w3.org/2000/svg" width="140" height="140" viewBox="0 0 140 140">
  <g id="wood-board" transform="translate(140) rotate(90)">
    <g id="Group_107" data-name="Group 107" transform="translate(0)">
      <path id="Path_93" data-name="Path 93" d="M22.6,0h53.79a22.6,22.6,0,0,1,22.6,22.6v53.79a22.6,22.6,0,0,1-22.6,22.6H22.6A22.6,22.6,0,0,1,0,76.392V22.6A22.6,22.6,0,0,1,22.6,0Z" transform="translate(0 70) rotate(-45)" fill="#1db4d4"/>
      <g id="Group_70" data-name="Group 70" transform="translate(47.646 40.269)">
        <g id="Group_69" data-name="Group 69">
          <g id="Group_68" data-name="Group 68">
            <path id="Path_72" data-name="Path 72" d="M.011,0h0Z" transform="translate(18.652 59.992)" fill="#fff"/>
            <path id="Path_73" data-name="Path 73" d="M.011,0,0,0Z" transform="translate(18.641 59.994)" fill="#fff"/>
            <path id="Path_74" data-name="Path 74" d="M19.423,53.59V15.141a.867.867,0,1,0-1.733,0v10.2A203.873,203.873,0,0,1,14.824,1.758H17.69v9.867a.867.867,0,1,0,1.733,0V.879A.873.873,0,0,0,18.557,0H.866A.873.873,0,0,0,0,.879V41.923a.873.873,0,0,0,.866.879.873.873,0,0,0,.866-.879V13.8C3.467,20.08,5.649,33.623,3.086,58.242H1.733v-12.8a.873.873,0,0,0-.866-.879A.873.873,0,0,0,0,45.439V59.121A.873.873,0,0,0,.866,60h6.4l11.394-.007.056-.009.038-.009.039-.01.044-.014.017-.006.013-.006.052-.023.029-.014.043-.024.034-.021.033-.023.037-.028.027-.023.036-.033.024-.025.032-.036.024-.031.026-.035.024-.038.019-.032c.008-.015.016-.03.023-.045l.014-.03c.007-.016.013-.032.019-.048l.011-.031c.005-.015.009-.031.014-.047s.007-.025.009-.037.006-.028.008-.042.005-.03.007-.046,0-.024,0-.036,0-.036,0-.054,0-.01,0-.016S19.423,53.593,19.423,53.59ZM6.52,58.242H4.828C5.947,47.4,6.783,32.228,4.748,19.614,3.65,12.805,2.164,9.527,1.733,8.68V1.758h.853C3.595,3.117,5.508,6.842,6.852,13.193a90.594,90.594,0,0,1,1.71,17.653A184.193,184.193,0,0,1,6.52,58.242Zm6.343,0h0c-.686-3.345-1.269-8.4-.41-10.453a28.022,28.022,0,0,1,3,5.86c.751,1.763,1.426,3.493,1.845,4.593ZM17.69,54.5c-.248-.607-.512-1.239-.784-1.872-2.633-6.112-3.658-6.745-4.412-6.859a1.2,1.2,0,0,0-1.164.5c-1.849,2.473-.769,9.244-.234,11.979H8.272a184.872,184.872,0,0,0,2.022-27.636,91.387,91.387,0,0,0-1.8-18.043A36.564,36.564,0,0,0,4.649,1.758h4.64c.314,2.614,1.4,11.486,2.787,21.268,2.2,15.481,4.088,25.81,5.614,30.711Zm0-8.08C14.773,32.2,11.671,7.031,11.035,1.758h2.053c.219,3.671,1.284,18.717,4.6,31.666V46.416Z" fill="#fff"/>
            <path id="Path_75" data-name="Path 75" d="M0,0C.031,0,.059,0,.087,0L0,0Z" transform="translate(18.554 59.995)" fill="#fff"/>
          </g>
        </g>
      </g>
      <g id="Group_72" data-name="Group 72" transform="translate(73.587 40.269)">
        <g id="Group_71" data-name="Group 71">
          <path id="Path_76" data-name="Path 76" d="M18.557,0H.866A.873.873,0,0,0,0,.879V59.121A.873.873,0,0,0,.866,60h17.69a.873.873,0,0,0,.866-.879V46.629a.867.867,0,1,0-1.733,0V58.242H15.139c-.114-10.113.144-24.31,1.932-36.209.206-1.374.416-2.6.619-3.674V43.114a.867.867,0,1,0,1.733,0V.879A.873.873,0,0,0,18.557,0ZM6.646,17.525a1.12,1.12,0,0,0,.9-.473c.3-.4.916-1.242.356-9-.182-2.524-.433-4.98-.575-6.293H8.96c.418,3.155,1.816,15.59-1.152,22.026-.478,1.037-.839,1.234-.941,1.222-.054-.006-1.346-.233-3.35-6.782-.981-3.206-1.667-6.42-1.784-6.978v-2.4c.206.544.423,1.1.645,1.666,2.478,6.259,3.351,6.883,4.094,7A1.11,1.11,0,0,0,6.646,17.525ZM1.733,1.758H5.588c.133,1.214.39,3.691.579,6.263a47.252,47.252,0,0,1,.17,7.039A81.136,81.136,0,0,1,1.733,3.75V1.758ZM4.748,58.242H1.733V29.726A107.569,107.569,0,0,1,4.748,58.242Zm1.735,0A105.725,105.725,0,0,0,4.455,34.074a103.886,103.886,0,0,0-2.722-11.01V18.319h0q.062.207.125.415c1.1,3.6,2.64,7.76,4.806,8.018a1.912,1.912,0,0,0,.229.014c.965,0,1.8-.751,2.485-2.237,1.531-3.321,2.2-8.344,1.973-14.93-.116-3.439-.448-6.367-.64-7.842h4.114c-.525,2.732-1.967,10.49-3.306,19.9C10.019,32.2,8.357,46.963,8.8,58.242H6.483ZM17.69,11.175a57.755,57.755,0,0,0-2.311,10.452c-1.823,12.032-2.089,26.386-1.973,36.615H10.539C9.728,38.312,15.607,6.849,16.59,1.758h1.1v9.417Z" fill="#fff"/>
        </g>
      </g>
    </g>
  </g>
</svg>
